<svg width="90" height="50" viewBox="0 0 90 50" fill="none" xmlns="http://www.w3.org/2000/svg">
<path d="M90 0H0V50H90V0Z" fill="#2557D6"/>
<path d="M0.0291414 24.1085H4.34926L5.32333 22.8579H7.5041L8.47564 24.1085H16.9758V23.1524L17.7346 24.1127H22.1472L22.906 23.1382V24.1086H44.0306L44.0208 22.0556H44.4295C44.7155 22.0609 44.7992 22.075 44.7992 22.3265V24.1086H55.7248V23.6307C56.6063 23.882 57.9769 24.1086 59.7804 24.1086H64.3768L65.3605 22.8579H67.5413L68.5032 24.1086H77.3607V22.9206L78.7022 24.1086H85.8001V16.2554H78.7755V17.1828L77.7922 16.2554H70.584V17.1828L69.6807 16.2554H59.9446C58.315 16.2554 56.8824 16.3765 55.7251 16.7139V16.2554H49.0063V16.7139C48.2698 16.3661 47.2665 16.2554 46.1506 16.2554H21.6036L19.9566 18.2836L18.2652 16.2554H10.5339V17.1828L9.68441 16.2554H3.09076L0.0285645 19.9891V24.1084H0.0289106L0.0291414 24.1085ZM27.2991 22.9758H24.7071L24.6976 18.5659L21.0312 22.9758H18.8112L15.1353 18.562V22.9758H9.9926L9.02107 21.7199H3.75641L2.77506 22.9758H0.0287952L4.5566 17.3452H8.31341L12.6137 22.6762V17.3452H16.7405L20.0495 21.1649L23.0892 17.3452H27.299L27.2991 22.9758ZM8.15683 20.5513L6.4263 18.3066L4.70533 20.5513H8.15683ZM37.6145 22.9757H29.168V17.3451H37.6145V18.5176H31.6966V19.5326H37.4727V20.6867H31.6965V21.8112H37.6144L37.6145 22.9757ZM49.5176 18.8616C49.5176 19.7593 48.392 20.2231 47.7362 20.3624C48.2893 20.4744 48.7621 20.6725 48.987 20.8365C49.344 21.1166 49.4056 21.3667 49.4056 21.8696V22.9757H46.8551L46.8455 22.2656C46.8455 21.9268 46.9065 21.4396 46.4465 21.1687C46.0771 20.9706 45.5139 20.9277 44.6035 20.9277H41.8893V22.9758H39.3608V17.3451H45.1763C46.4685 17.3451 47.4206 17.3633 48.238 17.6148C49.038 17.8663 49.5176 18.2335 49.5176 18.8616ZM46.3216 19.6976C45.9739 19.8099 45.5631 19.8136 45.0707 19.8136H41.9991V18.563H45.1125C45.553 18.563 46.0129 18.5735 46.3117 18.6645C46.6396 18.7466 46.8425 18.9211 46.8425 19.1623C46.8425 19.4084 46.6494 19.6065 46.3216 19.6976ZM53.5728 22.9757H50.993V17.3451H53.5728V22.9757ZM83.522 22.9757H79.939L75.1465 18.7496V22.9757H69.9971L69.0132 21.7198H63.7608L62.8065 22.9757H59.8471C58.6183 22.9757 57.0619 22.831 56.181 22.3529C55.2924 21.8749 54.83 21.2273 54.83 20.2034C54.83 19.3683 55.1064 18.6049 56.193 18.0017C57.0105 17.5523 58.2907 17.3451 60.033 17.3451H62.4808V18.5516H60.0842C59.1615 18.5516 58.6403 18.6247 58.1386 18.8851C57.7076 19.1222 57.4119 19.5704 57.4119 20.1606C57.4119 20.7638 57.637 21.1988 58.1068 21.4829C58.496 21.7057 59.2037 21.7733 59.869 21.7733H61.0046L64.5682 17.3453H68.3568L72.6378 22.671V17.3454H76.4877L80.9322 21.2668V17.3454H83.522V22.9757ZM68.1528 20.5513L66.403 18.3067L64.6629 20.5513H68.1528ZM89.9651 31.9667C89.351 32.4447 88.1543 32.6871 86.534 32.6871H81.6511V31.4794H86.5142C86.9966 31.4794 87.3341 31.4456 87.5374 31.34C87.7295 31.2455 87.838 31.1122 87.8364 30.9727C87.8364 30.8086 87.7136 30.6783 87.5275 30.6002C87.344 30.5142 87.077 30.4752 86.6365 30.4752C84.2626 30.4323 81.3007 30.5142 81.3007 28.732C81.3007 27.9152 82.2748 27.0554 84.9282 27.0554H89.9647V25.9349H85.285C83.873 25.9349 82.847 26.1151 82.1206 26.3948V25.9349H75.1992C74.0921 25.9349 72.793 26.0809 72.1786 26.3948V25.9349H59.8186V26.3948C58.835 26.0171 57.1753 25.9349 56.4091 25.9349H48.2565V26.3948C47.4782 25.9936 45.7478 25.9349 44.6927 25.9349H35.5684L33.4806 27.1377L31.525 25.9349H17.8946V33.7932H31.2677L33.4191 32.5713L35.4459 33.7932L43.6892 33.7971V31.9485H44.4993C45.593 31.9575 46.8831 31.9339 48.0212 31.6721V33.7929H54.8206V31.7447H55.1485C55.5671 31.7447 55.6083 31.754 55.6083 31.9765V33.7927H76.2633C77.5745 33.7927 78.9453 33.6141 79.7045 33.2898V33.7927H86.2561C87.6193 33.7927 88.9508 33.6909 89.9638 33.4306L89.9641 31.9665L89.9651 31.9667ZM49.0105 28.944C49.0105 30.5084 46.8176 30.8315 44.6075 30.8315H41.4526V32.7205H36.5382L33.4247 30.856L30.1891 32.7205H20.1735V27.0885H30.3429L33.4538 28.9346L36.6701 27.0885H44.7495C46.7559 27.0885 49.0105 27.3842 49.0105 28.944ZM28.9082 31.5359H22.6915V30.4154H28.2426V29.2663H22.6915V28.2423H29.0306L31.7963 29.8836L28.9082 31.5359ZM38.9247 32.1808L35.0427 29.8866L38.9247 27.6654V32.1808ZM44.6659 29.6765H41.3985V28.2423H44.6952C45.6082 28.2423 46.2418 28.4404 46.2418 28.9328C46.2418 29.4199 45.6375 29.6765 44.6659 29.6765ZM61.7844 27.0885H70.2234V28.2533H64.3024V29.2772H70.0788V30.4263H64.3024V31.5468L70.2233 31.5519V32.7205H61.7842L61.7844 27.0885ZM58.5399 30.1032C59.1027 30.2138 59.5628 30.4119 59.7784 30.5759C60.1355 30.851 60.1871 31.1076 60.1974 31.604V32.7205H57.6587V32.0159C57.6587 31.677 57.72 31.1754 57.25 30.9134C56.8806 30.7117 56.3173 30.6635 55.3951 30.6635H52.6928V32.7206H50.152V27.0886H55.9898C57.2697 27.0886 58.202 27.1187 59.032 27.3543C59.8299 27.611 60.3319 27.9625 60.3319 28.6051C60.3318 29.5039 59.2053 29.9626 58.5399 30.1032ZM57.1108 29.3912C56.7725 29.4981 56.3544 29.5073 55.8626 29.5073H52.7908V28.2424H55.9041C56.3544 28.2424 56.805 28.2476 57.1108 28.3442C57.4385 28.4354 57.6345 28.6099 57.6345 28.8508C57.6345 29.0917 57.4384 29.2858 57.1108 29.3912ZM79.9362 29.75C80.4289 30.0211 80.6925 30.3635 80.6925 30.9431C80.6925 32.1547 79.2707 32.7202 76.7203 32.7202H71.7957V31.5126H76.7007C77.1804 31.5126 77.5204 31.4789 77.7334 31.3731C77.9074 31.2861 78.0322 31.1595 78.0322 31.0059C78.0322 30.8417 77.8972 30.7115 77.7235 30.6334C77.5302 30.5475 77.2636 30.5084 76.8232 30.5084C74.4586 30.4655 71.4973 30.5475 71.4973 28.7654C71.4973 27.9484 72.4614 27.0886 75.1123 27.0886H80.1814V28.2873H75.5432C75.0835 28.2873 74.7845 28.2966 74.5302 28.389C74.2533 28.4802 74.1506 28.6156 74.1506 28.7941C74.1506 29.0065 74.3857 29.1511 74.7039 29.2137C74.9705 29.2631 75.2572 29.2775 75.6877 29.2775L77.0488 29.2971C78.4213 29.3148 79.3636 29.4412 79.9362 29.75ZM89.9695 28.2423H85.3613C84.9013 28.2423 84.5954 28.2515 84.3382 28.344C84.0714 28.4352 83.9687 28.5706 83.9687 28.7493C83.9687 28.9617 84.1938 29.1062 84.5215 29.1688C84.7883 29.2182 85.0748 29.2326 85.4958 29.2326L86.8663 29.2521C88.249 29.2703 89.172 29.3968 89.7348 29.7054C89.8376 29.7484 89.8989 29.7966 89.9694 29.8449V28.2423H89.9695Z" fill="white"/>
</svg>
