<svg width="24" height="24" viewBox="0 0 24 24" fill="none" xmlns="http://www.w3.org/2000/svg">
<path d="M3.85 15.4798C2.9718 13.6283 2.77453 11.5265 3.29287 9.54396C3.8112 7.5614 5.01196 5.82508 6.68396 4.64035C8.35597 3.45561 10.3922 2.89833 12.4344 3.0665C14.4767 3.23468 16.3943 4.11754 17.85 5.55983" stroke="#116ACC" stroke-width="1.5" stroke-linecap="round" stroke-linejoin="round"/>
<path d="M18.56 3.50977V6.24977H15.82" stroke="#116ACC" stroke-width="1.5" stroke-linecap="round" stroke-linejoin="round"/>
<path d="M20.15 8.52002C21.0282 10.3715 21.2255 12.4733 20.7071 14.4559C20.1888 16.4384 18.988 18.1748 17.316 19.3595C15.644 20.5442 13.6078 21.1015 11.5656 20.9333C9.52327 20.7652 7.60567 19.8823 6.14999 18.44" stroke="#116ACC" stroke-width="1.5" stroke-linecap="round" stroke-linejoin="round"/>
<path d="M5.44 20.49V17.75H8.18" stroke="#116ACC" stroke-width="1.5" stroke-linecap="round" stroke-linejoin="round"/>
</svg>
