<svg width="90" height="50" viewBox="0 0 90 50" fill="none" xmlns="http://www.w3.org/2000/svg">
<path d="M4.8 0H85.2C87.8519 0 90 1.9002 90 4.24625V45.7538C90 48.0998 87.852 50 85.2 50H4.8C2.14802 50 0 48.0998 0 45.7538V4.24625C0 1.9002 2.14802 0 4.8 0Z" fill="black"/>
<path d="M19.261 18.1582C20.0441 17.928 20.8848 17.8078 21.76 17.8078C25.5834 17.8078 28.7735 20.1703 29.499 23.3033L34.9116 22.3424C33.6679 17.017 28.2552 13.0029 21.76 13.0029C20.2744 13.0029 18.8464 13.2132 17.5105 13.6035L19.261 18.1582Z" fill="#FFF100"/>
<path d="M12.8694 33.4134L16.5316 29.8098C14.8963 28.5485 13.8713 26.7167 13.8713 24.6647C13.8713 22.6227 14.8963 20.7808 16.5316 19.5295L12.8694 15.936C10.094 18.0781 8.34351 21.1913 8.34351 24.6748C8.34351 28.1481 10.094 31.2712 12.8694 33.4134Z" fill="#00A3DF"/>
<path d="M29.499 26.0459C28.762 29.179 25.5835 31.5314 21.7601 31.5314C20.8848 31.5314 20.0441 31.4113 19.2495 31.181L17.499 35.7356C18.8349 36.1259 20.2745 36.3362 21.7601 36.3362C28.2553 36.3362 33.6679 32.3322 34.9117 27.0069L29.499 26.0459Z" fill="#EE4023"/>
<path d="M52.9462 29.2692C52.0479 30.0301 50.8387 30.4904 49.5028 30.4704C48.5815 30.4604 47.7294 30.2202 47.0153 29.8198L45.2187 32.3024C46.4509 32.9729 47.8904 33.3733 49.4568 33.3933C51.7254 33.4234 53.7983 32.6426 55.3071 31.3713L52.9462 29.2692ZM49.6986 19.1491C45.1842 19.089 41.4529 22.2322 41.3838 26.1561C41.3608 27.6276 41.8445 29.009 42.7082 30.1501L57.5412 24.6345C56.7121 21.5415 53.5336 19.2091 49.6986 19.1491ZM44.7812 26.7166C44.7581 26.5564 44.7466 26.3862 44.7466 26.2161C44.7927 23.9038 46.9808 22.0519 49.641 22.092C51.0921 22.112 52.3819 22.6825 53.2456 23.5834L44.7812 26.7166ZM62.2053 15.9458V29.6895L64.9463 30.6805L63.6449 33.3932L60.927 32.4123C60.3167 32.182 59.9021 31.8317 59.5911 31.4313C59.2916 31.0309 59.0613 30.4702 59.0613 29.7296V15.9458H62.2053ZM72.098 22.3022C72.5817 22.162 73.0884 22.0919 73.6296 22.0919C75.9675 22.0919 77.9023 23.5333 78.3513 25.4453L81.6565 24.8547C80.8964 21.6015 77.5913 19.159 73.6296 19.159C72.72 19.159 71.8446 19.2892 71.0385 19.5195L72.098 22.3022ZM68.1938 31.6015L70.428 29.4093C69.4261 28.6385 68.8042 27.5174 68.8042 26.2661C68.8042 25.0149 69.4376 23.8938 70.428 23.133L68.1938 20.9409C66.501 22.2422 65.4299 24.1541 65.4299 26.2762C65.4299 28.3984 66.501 30.3002 68.1938 31.6015ZM78.3513 27.1169C77.9023 29.0289 75.9559 30.4702 73.6296 30.4702C73.0999 30.4702 72.5817 30.3901 72.098 30.2501L71.0269 33.0329C71.8446 33.273 72.7199 33.4033 73.6296 33.4033C77.5913 33.4033 80.8966 30.9608 81.6565 27.7076L78.3513 27.1169Z" fill="white"/>
</svg>
