<svg width="90" height="50" viewBox="0 0 90 50" fill="none" xmlns="http://www.w3.org/2000/svg">
<path d="M83.6538 0H6.34615C2.84688 0 0 2.46238 0 5.48902V44.511C0 47.5376 2.84688 50 6.34615 50H83.6538C87.1529 50 90 47.5376 90 44.511V5.48902C90 2.46238 87.1529 0 83.6538 0Z" fill="white"/>
<path d="M38.4877 39.8891L5.42651 39.8995V39.8306C5.42651 39.7928 5.47924 39.5474 5.54363 39.2852C5.60813 39.0232 5.70828 38.6062 5.76644 38.3588C5.82436 38.1114 5.92359 37.6909 5.98671 37.4243C6.14201 36.7729 6.29548 36.1211 6.44698 35.469C6.50663 35.2119 6.60598 34.7913 6.66805 34.5345C6.74721 34.2059 6.82544 33.8771 6.90309 33.5481C6.97024 33.2627 7.07236 32.8265 7.13005 32.5789C7.18774 32.3314 7.27936 31.9499 7.33371 31.7311C7.38794 31.5123 7.45728 31.2164 7.48751 31.0735C7.51786 30.9307 7.61605 30.5101 7.70571 30.139C7.78117 29.828 7.85455 29.5165 7.92551 29.2046C7.95678 29.0619 8.05613 28.6412 8.14636 28.2702C8.23648 27.8991 8.33548 27.4786 8.3664 27.3357C8.39732 27.193 8.4969 26.7725 8.58759 26.4013C8.67851 26.03 8.77659 25.6175 8.80544 25.4842C8.83451 25.351 8.9139 25.0084 8.98198 24.7229C9.04994 24.4373 9.17871 23.9 9.26801 23.5289C9.35744 23.1576 9.51021 22.5113 9.60748 22.0923C9.70498 21.6737 9.8214 21.1754 9.86628 20.9849C9.99817 20.4253 10.1312 19.8657 10.2656 19.3065C10.3319 19.0302 10.4395 18.5787 10.5049 18.3026C10.5705 18.0266 10.6713 17.5983 10.7291 17.3509C10.7869 17.1035 10.8856 16.6908 10.9484 16.4337C11.0111 16.1769 11.1191 15.7251 11.1884 15.43C11.2576 15.1349 11.3736 14.6833 11.446 14.4264C11.5185 14.1694 11.6209 13.8579 11.6738 13.7342C11.7265 13.6104 11.8722 13.3423 11.9976 13.1381L12.2254 12.7672L12.4326 12.5324C12.5463 12.4035 12.7497 12.1996 12.8844 12.0795C13.0191 11.9593 13.2461 11.7785 13.3893 11.6777C13.5323 11.5768 13.7394 11.4406 13.8494 11.3752C13.9594 11.3097 14.1756 11.195 14.3296 11.1204C14.4836 11.0457 14.6999 10.948 14.8098 10.9032C14.9199 10.8584 15.145 10.7765 15.31 10.7213C15.475 10.6662 15.7901 10.5737 16.0102 10.5159C16.2302 10.458 16.6434 10.3708 16.9283 10.3222C17.2132 10.2735 17.6632 10.2084 17.9287 10.1776L18.4111 10.1215L51.493 10.1107L84.5749 10.0996V10.1685C84.5749 10.2063 84.5219 10.4517 84.4571 10.7138C84.3753 11.0454 84.295 11.3773 84.2162 11.7095C84.1484 11.995 84.0499 12.4078 83.9969 12.6267C83.9219 12.938 83.8474 13.2495 83.7738 13.5611C83.7041 13.8562 83.5971 14.3079 83.5358 14.5648C83.4745 14.8218 83.3752 15.2423 83.3152 15.4992C83.2552 15.7563 83.1553 16.1768 83.0933 16.4336C83.0211 16.7334 82.9498 17.0334 82.8794 17.3336C82.8239 17.5716 82.7232 17.9998 82.656 18.2853C82.5886 18.5708 82.4805 19.0226 82.4156 19.289C82.3508 19.5555 82.252 19.9683 82.1962 20.2062C82.1402 20.4441 82.0397 20.8724 81.9726 21.1578C81.9054 21.4433 81.7975 21.8951 81.7327 22.1617C81.6678 22.4282 81.5714 22.833 81.5179 23.0615C81.3699 23.6961 81.2208 24.3307 81.0709 24.9651C81.0167 25.1934 80.9201 25.5984 80.8563 25.8649C80.7745 26.205 80.6935 26.5453 80.6131 26.8858C80.5433 27.1809 80.4434 27.6013 80.3912 27.8204C80.3388 28.0391 80.2411 28.4518 80.1737 28.7373C80.0948 29.0721 80.0155 29.4065 79.9357 29.741C79.8721 30.0076 79.7724 30.4282 79.714 30.6757C79.6559 30.9231 79.5544 31.3514 79.489 31.6273C79.4235 31.9033 79.3163 32.3549 79.2511 32.6309C79.1858 32.907 79.0879 33.3198 79.0336 33.5482C78.9595 33.8595 78.8861 34.171 78.813 34.4825C78.7342 34.8162 78.6534 35.1495 78.5704 35.4824L78.45 35.9632L78.3064 36.2957C78.2275 36.4787 78.1088 36.7218 78.0426 36.836C77.9767 36.9502 77.842 37.1517 77.7435 37.2838C77.6449 37.4158 77.5076 37.585 77.4384 37.6598C77.3691 37.7345 77.1607 37.9276 76.9748 38.0888L76.6375 38.3817L76.3128 38.5813C76.1342 38.6912 75.9416 38.8029 75.8853 38.8294C75.8288 38.8562 75.6136 38.9513 75.4069 39.0405C75.2005 39.1299 74.9088 39.2438 74.7588 39.2934C74.6088 39.3432 74.3117 39.4278 74.0986 39.4813C73.8855 39.5351 73.657 39.588 73.5911 39.599C73.525 39.6099 73.2959 39.6509 73.0818 39.6902C72.8678 39.7294 72.4356 39.7879 72.1216 39.8203L71.5504 39.8791L38.4893 39.8891H38.4877ZM26.7254 32.4924H27.5857L27.6099 32.4376C27.6234 32.4075 27.6342 32.3367 27.6342 32.2803C27.6342 32.224 27.6626 32.019 27.6974 31.8248C27.732 31.6303 27.8132 31.1833 27.8781 30.8312C27.9428 30.479 28.0397 29.9495 28.0935 29.6545C28.1446 29.3751 28.1932 29.0952 28.2394 28.8152C28.2659 28.6486 28.2981 28.5124 28.3111 28.5124C28.324 28.5124 28.3796 28.5859 28.4347 28.676L28.5346 28.8395L28.7564 29.0329L28.9782 29.2263L29.2512 29.3209L29.5244 29.4154L29.8497 29.4518L30.1752 29.4882L30.5882 29.4664L31.0013 29.4443L31.4485 29.3443L31.8959 29.244L32.1359 29.1494C32.268 29.0973 32.502 28.9835 32.656 28.8968L32.9362 28.739L33.1973 28.5132C33.3409 28.3892 33.5436 28.19 33.6474 28.0707C33.7515 27.9516 33.8365 27.8453 33.8365 27.8347C33.8365 27.8242 33.8876 27.7503 33.9501 27.6707C34.0125 27.5911 34.1401 27.3701 34.2338 27.1798C34.3276 26.9895 34.4739 26.6469 34.5593 26.4185L34.7144 26.0031L34.7946 25.6434C34.8386 25.4456 34.8954 25.1185 34.9207 24.9166L34.9665 24.5495L34.9399 24.238L34.9135 23.9266L34.8299 23.6151L34.7464 23.3036L34.6112 23.0705L34.4761 22.8371L34.215 22.5978L33.954 22.3585L33.6451 22.2204L33.3362 22.0823L32.9961 22.0118L32.6559 21.9414L32.3157 21.9199L31.9757 21.8982L31.5969 21.9358L31.2179 21.9736L30.9087 22.0419L30.5995 22.1102L30.3308 22.2178C30.1831 22.2769 29.968 22.3774 29.8531 22.4409C29.7381 22.5047 29.6193 22.5778 29.5893 22.6036C29.5594 22.6294 29.4876 22.6775 29.4299 22.71L29.3247 22.7696L29.3981 22.4655C29.4386 22.2983 29.4723 22.1421 29.4732 22.1182L29.4749 22.075H28.0076L27.8791 22.7758C27.8082 23.1613 27.6966 23.757 27.6308 24.0997C27.4857 24.8556 27.339 25.6112 27.1905 26.3666C27.1251 26.6996 27.0169 27.2292 26.9501 27.5433C26.8833 27.8574 26.7856 28.3169 26.7327 28.5644C26.68 28.8118 26.5806 29.279 26.512 29.6025C26.4311 29.9833 26.3494 30.3641 26.2669 30.7446C26.1888 31.1025 26.109 31.4601 26.0276 31.8175C25.9621 32.1029 25.8989 32.3718 25.8867 32.4144L25.8649 32.4923H26.7254V32.4924ZM30.4292 28.4909L30.0952 28.5084L29.8769 28.4749L29.6584 28.4415L29.4367 28.354L29.2148 28.2664L29.0599 28.1384L28.905 28.0106L28.8156 27.8375C28.7663 27.7423 28.7032 27.5806 28.6751 27.4781L28.6241 27.2919L28.6446 26.9936L28.6651 26.6955L28.7681 26.2282C28.8459 25.871 28.9214 25.5133 28.9943 25.1553C29.062 24.8222 29.1647 24.334 29.2223 24.0706L29.3269 23.5915L29.5563 23.4265C29.6826 23.3358 29.8824 23.214 30.0006 23.1561L30.2152 23.0507L30.4952 22.9758L30.7754 22.9007L31.1355 22.8823L31.4956 22.8641L31.7889 22.9182L32.0821 22.9722L32.2891 23.0546L32.496 23.137L32.6695 23.2879L32.8432 23.4388L32.9366 23.5987C32.9882 23.6866 33.0606 23.8586 33.0974 23.9809L33.1644 24.2034L33.1439 24.8611L33.1233 25.5188L33.0206 25.9075C32.9641 26.1213 32.8566 26.4483 32.7816 26.6341L32.6453 26.9724L32.4782 27.246C32.3864 27.3966 32.2448 27.6 32.1636 27.698C32.0823 27.796 31.9527 27.9234 31.8757 27.9804C31.7823 28.0491 31.6868 28.1154 31.5891 28.1791L31.4424 28.2739L31.1028 28.3738L30.7632 28.4737L30.4292 28.4909ZM38.7382 29.4424L39.1784 29.4468L39.6183 29.4121C39.8606 29.393 40.2566 29.3532 40.4986 29.3236C40.7409 29.2941 41.1591 29.2281 41.4281 29.177L41.9172 29.0838L41.9417 28.9278C41.955 28.8421 42.01 28.5867 42.0638 28.3604L42.1615 27.9487L42.1398 27.9301L42.1182 27.9115L41.9687 27.9739C41.8864 28.0082 41.6302 28.0902 41.3994 28.156L40.9796 28.2755L40.5391 28.3494L40.0986 28.4232L39.3984 28.4245L38.6981 28.4256L38.458 28.3593C38.326 28.3229 38.1318 28.2562 38.0265 28.211L37.8351 28.1291L37.6771 28.0056L37.519 27.882L37.3957 27.6957L37.2723 27.5092L37.195 27.2755L37.1177 27.0415L37.1172 26.6088L37.1167 26.1761L37.1852 25.7901L37.2541 25.404L37.8562 25.3796L38.4582 25.3553L40.6841 25.3678L42.9099 25.3801L42.9771 25.1335C43.0141 24.9979 43.0706 24.7176 43.1027 24.5106L43.1611 24.1341L43.1624 23.8176L43.1637 23.5009L43.1004 23.2646L43.0368 23.0282L42.9321 22.8718C42.8746 22.7857 42.7728 22.661 42.7065 22.5945C42.64 22.5282 42.5213 22.4344 42.4427 22.3865C42.3639 22.3386 42.2096 22.2578 42.0996 22.2072L41.8996 22.1152L41.5501 22.0423L41.2005 21.9696L40.77 21.9339L40.3391 21.8984L39.9391 21.921L39.5389 21.9434L39.0587 22.0233L38.5786 22.1031L38.2784 22.2068C38.1132 22.2637 37.8612 22.368 37.7183 22.4381C37.5752 22.5083 37.3772 22.6225 37.2783 22.6917C37.1791 22.7612 37.0075 22.8962 36.8971 22.9917C36.7866 23.0872 36.6229 23.2588 36.5339 23.373C36.4446 23.4873 36.3077 23.6897 36.2295 23.8229C36.1515 23.9562 36.0498 24.1431 36.0036 24.2382C35.9575 24.3333 35.8733 24.5281 35.817 24.6708C35.7604 24.8137 35.6716 25.0861 35.6198 25.2766C35.5586 25.5072 35.5058 25.7393 35.4614 25.9729L35.3974 26.3232L35.3981 26.8381L35.3988 27.3531L35.4595 27.5781C35.4929 27.7018 35.557 27.8887 35.6016 27.9934C35.6461 28.0981 35.7289 28.2538 35.7854 28.3395C35.8418 28.4253 35.9621 28.563 36.0528 28.646C36.1434 28.7289 36.3078 28.8548 36.4179 28.9256C36.5277 28.9963 36.7237 29.0961 36.853 29.147L37.0883 29.2396L37.4163 29.3083C37.5967 29.346 37.869 29.3907 38.0214 29.4077C38.1734 29.4242 38.4961 29.4401 38.7382 29.4424ZM39.4917 24.5669C38.3841 24.5669 37.4777 24.5601 37.4777 24.5516C37.4777 24.5433 37.525 24.4226 37.5828 24.2833C37.6405 24.1442 37.7421 23.9372 37.8082 23.8234L37.9287 23.6161L38.1933 23.3884L38.458 23.1606L38.7182 23.0531C38.8612 22.9939 39.0503 22.9296 39.1383 22.9099C39.2265 22.8903 39.4784 22.8644 39.6984 22.8523L40.0987 22.83L40.4061 22.8643L40.7132 22.8984L40.9366 22.9868L41.16 23.0754L41.2825 23.1896C41.3498 23.2524 41.43 23.345 41.4609 23.3951L41.5166 23.4865L41.5536 23.6894L41.5906 23.8921L41.5482 24.2295L41.506 24.5672H39.4917V24.5669ZM51.4629 29.4426L51.9033 29.4468L52.4032 29.3955C52.6781 29.3674 53.0441 29.3207 53.2166 29.2916C53.425 29.2554 53.6319 29.2129 53.8368 29.1644C54.0055 29.1231 54.1582 29.0784 54.1759 29.0653C54.1938 29.052 54.2414 28.895 54.2819 28.7163C54.3224 28.5375 54.3732 28.2979 54.3951 28.1836C54.4167 28.0694 54.4281 27.9699 54.4201 27.9624C54.412 27.9549 54.3826 27.9646 54.3546 27.9837C54.3265 28.0031 54.1302 28.0746 53.9183 28.1426L53.533 28.2664L52.9842 28.3583L52.4355 28.4502L51.9691 28.4365L51.5026 28.4228L51.2376 28.3431L50.9725 28.2636L50.7678 28.1088L50.5632 27.9538L50.4273 27.7397L50.2915 27.5259L50.2267 27.2395L50.1619 26.9534L50.1625 26.582L50.1629 26.2107L50.2414 25.7608L50.3201 25.3107L50.4033 25.0684C50.449 24.9351 50.5009 24.7794 50.5184 24.7224C50.5359 24.6652 50.6092 24.5017 50.6814 24.3588C50.7535 24.2161 50.8823 23.9954 50.9674 23.8686L51.1223 23.6378L51.3126 23.4673L51.5027 23.2967L51.7041 23.1887L51.9056 23.0806L52.1643 23.0117C52.3066 22.9739 52.5581 22.9246 52.7231 22.9025L53.0234 22.862L53.4633 22.881L53.9035 22.9001L54.4237 22.9901L54.9439 23.08L55.1554 23.1484C55.2717 23.1858 55.372 23.2168 55.3784 23.2168C55.3846 23.2168 55.4125 23.0882 55.4403 22.9311C55.4682 22.7743 55.5179 22.5158 55.5506 22.3571C55.5835 22.1982 55.6024 22.0615 55.5926 22.0532C55.5831 22.0448 55.4267 22.0234 55.2453 22.0054C55.0638 21.9876 54.5706 21.9559 54.1494 21.9348L53.3834 21.8968L52.843 21.9325L52.3029 21.9685L51.9026 22.0411L51.5025 22.1139L51.2448 22.203C51.103 22.252 50.8956 22.3405 50.7835 22.3997C50.6761 22.4562 50.5705 22.5151 50.4668 22.5764C50.4045 22.6145 50.2157 22.763 50.047 22.9066L49.7407 23.1674L49.5694 23.3841C49.4755 23.5034 49.3127 23.752 49.2078 23.9366L49.0172 24.2724L48.871 24.6356C48.7907 24.8355 48.6784 25.1626 48.6218 25.3625L48.5185 25.726L48.481 26.0548L48.4436 26.3836L48.444 26.8162L48.4444 27.2487L48.4822 27.5004L48.5199 27.7521L48.6398 28.011L48.7596 28.2699L48.8981 28.457L49.0364 28.6441L49.2564 28.8315L49.4767 29.0189L49.7094 29.1255L49.9425 29.2317L50.2482 29.3053C50.4164 29.3456 50.6595 29.392 50.7885 29.4083C50.9175 29.4246 51.2209 29.4398 51.4632 29.4421H51.4629V29.4426ZM58.0449 29.4298L58.585 29.4164L58.9252 29.3411L59.2653 29.2657L59.4855 29.1759C59.6065 29.1265 59.8045 29.0287 59.9254 28.9587C60.0466 28.8888 60.2341 28.7559 60.3419 28.6634C60.4497 28.5708 60.6098 28.4129 60.6975 28.3124C60.7852 28.2119 60.8622 28.1343 60.8686 28.1399C60.8753 28.1455 60.855 28.3054 60.8237 28.4954C60.7927 28.6855 60.7668 28.9383 60.7664 29.0574L60.7657 29.2736H62.2344L62.2568 28.7805L62.2792 28.2873L62.3839 27.647C62.4416 27.2948 62.5347 26.7731 62.5909 26.4876C62.6469 26.2022 62.7445 25.7195 62.8077 25.4148C62.8709 25.1101 62.9709 24.6351 63.0299 24.3591L63.1374 23.8574L63.1411 23.4239L63.1446 22.9903L63.0314 22.79L62.9181 22.5896L62.7645 22.4621L62.6107 22.3344L62.3586 22.2241L62.1061 22.1135L61.7301 22.041L61.354 21.9686L60.8364 21.9346L60.3187 21.9005L59.652 21.9362C59.2849 21.9558 58.7691 21.9945 58.5049 22.0223L58.0247 22.0727L57.6975 22.0738L57.3702 22.0749L57.3226 22.274C57.2964 22.3833 57.2236 22.6433 57.1609 22.8518C57.0981 23.0602 57.0527 23.2357 57.0597 23.2418C57.0668 23.2479 57.2418 23.2136 57.4486 23.1655C57.6554 23.1173 58.0949 23.0382 58.425 22.9894L59.0251 22.901L59.5653 22.8818L60.1056 22.8626L60.4536 22.9154L60.8017 22.9681L61.0338 23.0672L61.2661 23.1664L61.3961 23.334L61.5263 23.5017L61.5244 23.7659L61.5225 24.0302L61.4535 24.3202L61.3845 24.6103L59.9446 24.6148L58.5048 24.6192L58.0337 24.7309C57.7746 24.7924 57.4876 24.8741 57.396 24.9122C57.3044 24.9506 57.2127 24.9819 57.1923 24.9819C57.172 24.9819 57.0179 25.0557 56.8497 25.1462L56.5442 25.3104L56.3036 25.5182C56.1712 25.6325 56.0021 25.8038 55.9278 25.899C55.8534 25.9941 55.7327 26.1929 55.6596 26.3408L55.5264 26.6096L55.4654 26.9118L55.4042 27.214V27.8482L55.4625 28.1123L55.521 28.3764L55.6292 28.5485C55.6889 28.6431 55.7984 28.7819 55.8722 28.8568L56.007 28.9929L56.2462 29.1187L56.4855 29.2445L56.7595 29.3114C56.9102 29.3482 57.1395 29.3929 57.2692 29.4108L57.5048 29.4428L58.045 29.4294H58.0449V29.4298ZM58.5451 28.4619L58.225 28.4765L58.0129 28.4296C57.8964 28.404 57.7194 28.3468 57.6198 28.3025L57.4388 28.2219L57.3398 28.1202C57.2854 28.0641 57.2025 27.9544 57.1552 27.8761L57.0694 27.7335L57.0527 27.4009L57.0357 27.0682L57.1036 26.8664C57.1409 26.7555 57.2284 26.5627 57.2982 26.4383L57.4249 26.2121L57.6677 26.0038L57.9102 25.7954L58.1678 25.6881L58.4252 25.581L58.7453 25.5152L59.0654 25.4493H61.0661L61.1295 25.4721L61.1927 25.4946L61.1395 25.7664C61.1102 25.9157 61.0404 26.1858 60.9841 26.3667C60.9281 26.5476 60.829 26.8134 60.7642 26.9574C60.6992 27.1015 60.646 27.229 60.646 27.2404C60.646 27.2521 60.5802 27.357 60.4998 27.4738L60.3536 27.686L60.1137 27.8917C59.9819 28.0047 59.8592 28.0972 59.8416 28.0972C59.8239 28.0972 59.743 28.1363 59.6618 28.1838L59.5144 28.2703L59.1899 28.3592L58.8654 28.4479L58.5451 28.4619ZM71.5697 29.4421L71.9498 29.4463L72.31 29.3957C72.5081 29.368 72.7601 29.3232 72.8702 29.2962C72.9802 29.2692 73.1784 29.1994 73.3102 29.1409L73.5504 29.0345L73.7569 28.8773L73.9634 28.72L74.181 28.4692C74.3006 28.3311 74.409 28.1949 74.4217 28.1663L74.4449 28.1143L74.4247 28.2873C74.4104 28.4032 74.3919 28.5186 74.3694 28.6335C74.3499 28.7287 74.3224 28.9117 74.3079 29.0401L74.2814 29.2737H75.8513V28.8065L75.9708 27.9239C76.0365 27.4384 76.1339 26.7922 76.1869 26.4875C76.24 26.1828 76.3221 25.747 76.3692 25.5186C76.4161 25.2901 76.4996 24.8773 76.5543 24.6014C76.6092 24.3255 76.7082 23.8425 76.7745 23.5286C76.8406 23.2144 76.9466 22.716 77.01 22.4211C77.0732 22.126 77.1716 21.6664 77.2286 21.4C77.2856 21.1336 77.3875 20.6662 77.4552 20.3618C77.5262 20.044 77.5995 19.7268 77.6752 19.41C77.7285 19.1912 77.772 19.0003 77.7719 18.986V18.96H76.0591L76.0338 19.1764C76.02 19.2953 75.9543 19.6885 75.8882 20.0503C75.8096 20.4774 75.7297 20.9042 75.6482 21.3307C75.6008 21.5769 75.5539 21.823 75.5074 22.0692L75.486 22.1844L75.4185 22.1597C75.3813 22.146 75.1797 22.0976 74.9708 22.0522L74.5907 21.9697L74.0706 21.9345L73.5502 21.8995L73.1101 21.9348L72.67 21.9704L72.2699 22.0579L71.8697 22.1453L71.4896 22.3057L71.1093 22.4661L70.8292 22.6452L70.5491 22.8246L70.3072 23.0491C70.1741 23.1724 69.982 23.3766 69.88 23.5025L69.6949 23.7317L69.4773 24.1232C69.3578 24.3385 69.2122 24.6237 69.1539 24.7569C69.0955 24.8902 68.9928 25.1855 68.9253 25.4133L68.8029 25.8275L68.7426 26.3652L68.6823 26.9028L68.7276 27.3353L68.7731 27.7681L68.8266 27.9238C68.8562 28.0094 68.9182 28.1621 68.9645 28.2628L69.049 28.4464L69.2031 28.6267L69.3572 28.8071L69.533 28.9316L69.7088 29.0563L69.9489 29.1595C70.0811 29.216 70.3024 29.2894 70.4413 29.3223C70.5797 29.3551 70.8048 29.3946 70.9414 29.4099C71.0779 29.4255 71.3605 29.4399 71.5697 29.4421ZM72.252 28.4604L71.9498 28.4741L71.746 28.4424C71.6339 28.425 71.4544 28.3781 71.3471 28.3383L71.1523 28.2662L70.9882 28.1498L70.8242 28.0336L70.7024 27.8317L70.5804 27.6299L70.5248 27.405L70.4694 27.1799L70.4741 26.73L70.4787 26.2801L70.5434 25.882L70.6079 25.4841L70.7081 25.2074C70.7634 25.0551 70.8087 24.9113 70.809 24.8879C70.8094 24.8648 70.8637 24.7402 70.93 24.6113C71.0076 24.4621 71.0895 24.3146 71.1758 24.1691C71.2449 24.0548 71.3739 23.8769 71.4623 23.7734C71.551 23.6701 71.709 23.5143 71.8133 23.4272C71.9176 23.3404 72.0834 23.2262 72.182 23.1738L72.3611 23.0785L72.6758 22.9843L72.9904 22.8901L73.6507 22.8898H74.3109L74.691 22.9811C74.9002 23.0312 75.1222 23.0894 75.1844 23.1104L75.2975 23.1485L75.2755 23.2434C75.2635 23.2957 75.2157 23.5254 75.1698 23.7537C75.1239 23.9821 75.0332 24.4183 74.9685 24.7229C74.9037 25.0275 74.8043 25.4869 74.7474 25.7438C74.6906 26.0007 74.6084 26.3279 74.5645 26.4705C74.5195 26.6172 74.4738 26.7637 74.4273 26.9099C74.3956 27.0088 74.32 27.1802 74.2595 27.2906C74.199 27.401 74.0929 27.5616 74.0239 27.6471C73.9548 27.7327 73.8384 27.8516 73.7648 27.9109C73.6911 27.9704 73.5317 28.0758 73.4108 28.1453L73.1907 28.272L72.8726 28.3593L72.5545 28.4466L72.252 28.4604ZM13.362 29.2737H14.3341L14.4039 28.9017C14.4422 28.697 14.5172 28.3037 14.5704 28.0278L14.7904 26.8856C14.8583 26.5334 14.9601 26.0117 15.0165 25.7263C15.0729 25.4407 15.1627 24.9978 15.2157 24.7421C15.2689 24.4861 15.3226 24.2681 15.3348 24.2575L15.3573 24.2381H20.5857L20.6148 24.2633L20.6439 24.2884L20.5984 24.4882C20.5736 24.5982 20.4999 24.9371 20.4347 25.2418C20.3695 25.5464 20.2599 26.0603 20.191 26.384C20.1187 26.7246 20.0451 27.0648 19.9702 27.4049C19.9173 27.6428 19.8105 28.1411 19.7327 28.5124C19.6551 28.8835 19.5916 29.2067 19.5918 29.2305L19.5923 29.2738H21.5447L21.5879 29.0576C21.6117 28.9386 21.6498 28.7245 21.6729 28.5816C21.6957 28.4388 21.7512 28.1349 21.7959 27.9067C21.8406 27.6784 21.9297 27.2266 21.9942 26.903C22.0586 26.5794 22.1666 26.0265 22.234 25.6743C22.3014 25.3221 22.4013 24.8081 22.4562 24.5322C22.5257 24.1857 22.5981 23.8396 22.6732 23.494C22.7377 23.1989 22.8452 22.7006 22.9121 22.3863C22.9791 22.0724 23.0791 21.5974 23.1347 21.3307C23.1903 21.0643 23.2916 20.5814 23.3599 20.2579C23.4282 19.9343 23.5144 19.5568 23.5515 19.4186L23.6189 19.1677H21.642L21.6151 19.3321C21.6004 19.4224 21.5527 19.6756 21.5091 19.8945C21.4653 20.1134 21.3862 20.5027 21.3329 20.7597C21.2796 21.0168 21.1822 21.5073 21.1164 21.85C21.0519 22.1856 20.9898 22.5216 20.9302 22.858L20.8635 23.2428L19.4125 23.2683L17.9614 23.2936L16.7462 23.2687C16.0778 23.255 15.5272 23.241 15.5226 23.2377C15.5181 23.2343 15.5408 23.0999 15.5731 22.9388C15.6157 22.7311 15.661 22.524 15.7091 22.3172C15.7705 22.0521 15.8302 21.7867 15.888 21.521C15.9439 21.2641 16.0072 20.9449 16.0287 20.8116C16.0502 20.6785 16.0953 20.4564 16.1289 20.3184C16.1625 20.1804 16.2262 19.8897 16.2705 19.6725C16.3147 19.4551 16.3619 19.2526 16.3754 19.2226L16.3996 19.1676H14.4386L14.376 19.4705C14.3414 19.637 14.2953 19.8745 14.2736 19.9982C14.2518 20.1219 14.1788 20.5191 14.1113 20.8807C14.0438 21.2424 13.9441 21.7797 13.8897 22.0748L13.6702 23.2688C13.593 23.6847 13.5115 24.1 13.426 24.5147C13.3548 24.8552 13.2822 25.1955 13.2083 25.5356C13.1562 25.7737 13.0571 26.2253 12.9879 26.5394C12.9153 26.8686 12.8404 27.1974 12.7635 27.5259C12.7092 27.7542 12.6494 28.019 12.6304 28.1142C12.6113 28.2093 12.5494 28.4839 12.4927 28.7243C12.436 28.9645 12.3896 29.1864 12.3896 29.2174V29.2735H13.362V29.2737ZM24.1248 29.2737H24.9855L25.0097 29.219C25.0232 29.1887 25.0341 29.1098 25.0341 29.0435C25.0341 28.9771 25.0883 28.6317 25.1543 28.2763C25.3053 27.4661 25.4601 26.6565 25.6186 25.8473C25.6866 25.5064 25.758 25.1661 25.8331 24.8264C25.8968 24.5409 25.9946 24.0969 26.0505 23.8401C26.1062 23.5831 26.2161 23.0942 26.2944 22.7535C26.3727 22.413 26.4466 22.1207 26.4585 22.104L26.4803 22.0736L25.6099 22.0828L24.7396 22.0921L24.6669 22.5422C24.6272 22.7896 24.54 23.2803 24.4733 23.6323C24.4067 23.9844 24.3059 24.522 24.2492 24.8264C24.1807 25.1904 24.1075 25.5539 24.03 25.9167C23.9659 26.2117 23.8679 26.6633 23.8119 26.9203C23.7561 27.1774 23.6558 27.629 23.5891 27.9241C23.5224 28.2192 23.433 28.6085 23.3903 28.7893C23.3475 28.9703 23.3017 29.1532 23.2883 29.196L23.2642 29.2738H24.1248V29.2737ZM44.2548 29.2737H45.109L45.1347 28.961C45.1489 28.7891 45.1972 28.4425 45.2422 28.1909C45.2872 27.9393 45.3794 27.4376 45.4469 27.0761C45.5322 26.629 45.6252 26.1829 45.7259 25.7381C45.8119 25.3641 45.909 24.9922 45.9417 24.9119C45.9745 24.8315 46.0014 24.7444 46.0014 24.7185C46.0014 24.6922 46.0657 24.5501 46.1441 24.4026C46.2226 24.255 46.3688 24.0291 46.4692 23.9004L46.6516 23.6665L46.8956 23.4709L47.1398 23.2755L47.4407 23.1511L47.7417 23.0267L48.202 23.0288L48.6619 23.0308L48.8882 23.0892C49.0126 23.1214 49.1252 23.1477 49.1382 23.1477C49.1514 23.1477 49.1621 23.111 49.1621 23.066C49.1621 23.0212 49.2072 22.7932 49.2622 22.5595C49.3172 22.3259 49.3622 22.1249 49.3622 22.1128C49.3622 22.1007 49.2317 22.0565 49.0721 22.0146C48.9126 21.9727 48.6919 21.9288 48.582 21.9169L48.3819 21.8955L48.1218 21.9352C47.9787 21.9572 47.7661 22.0054 47.6492 22.0426C47.5321 22.0798 47.3391 22.1641 47.22 22.2299C47.1011 22.2958 46.9158 22.4242 46.8087 22.5151C46.7013 22.6061 46.5209 22.7896 46.4076 22.9229C46.3194 23.0264 46.2317 23.1302 46.1445 23.2343L46.0872 23.3035L46.122 23.1651C46.1411 23.0888 46.1944 22.8396 46.2404 22.6113C46.2862 22.3828 46.3337 22.1686 46.3451 22.1354L46.3666 22.0748H44.8405V22.1583C44.8405 22.2041 44.7954 22.4805 44.7406 22.7725C44.6854 23.0647 44.5946 23.5525 44.5389 23.8572C44.4831 24.1618 44.3837 24.6912 44.3185 25.0339C44.2488 25.3978 44.1754 25.7613 44.098 26.1241C43.9474 26.8169 43.7934 27.5091 43.6359 28.2007C43.5685 28.4958 43.4879 28.8441 43.4568 28.9752C43.4256 29.1059 43.4002 29.2266 43.4002 29.2432V29.2737H44.2548ZM64.5348 29.2737H65.4083V28.8112L65.5088 28.2377C65.5643 27.9225 65.6556 27.4229 65.712 27.128C65.7682 26.8328 65.8383 26.4592 65.8677 26.2972C65.8973 26.1355 65.9754 25.7851 66.0412 25.5187C66.1073 25.252 66.1895 24.964 66.2243 24.8784C66.2591 24.7927 66.2876 24.7027 66.288 24.6786C66.2885 24.6544 66.3629 24.4989 66.4536 24.333L66.6184 24.0314L66.8362 23.7813L67.0537 23.5314L67.2916 23.3767C67.4224 23.2914 67.633 23.1787 67.7596 23.1256L67.9893 23.0292L68.4894 23.0321L68.9896 23.0352L69.1866 23.0898L69.3834 23.1446L69.4166 23.1268L69.4497 23.109L69.4517 22.9986C69.4525 22.9379 69.4953 22.7119 69.5467 22.4963L69.6404 22.1045L69.5351 22.069C69.4343 22.0367 69.3325 22.0067 69.2298 21.979L69.0299 21.9244L68.6697 21.9253L68.3096 21.9261L68.0161 22.0155L67.7226 22.1047L67.5022 22.2197L67.2819 22.3346L66.9954 22.5942L66.7089 22.8538L66.555 23.0552C66.4704 23.1659 66.3959 23.2516 66.3894 23.2455C66.3828 23.2394 66.429 23.0087 66.4916 22.7327C66.5543 22.4566 66.6064 22.1957 66.6074 22.1529L66.6091 22.075H65.1286V22.0971C65.1286 22.1092 65.0918 22.3312 65.0466 22.5902C65.0014 22.8495 64.9107 23.3495 64.8453 23.7017C64.7666 24.123 64.6869 24.544 64.6062 24.965C64.5361 25.3288 64.4624 25.6923 64.3853 26.0552C64.3298 26.3121 64.2311 26.7639 64.1661 27.0589C64.1011 27.354 63.9941 27.8291 63.9286 28.1146L63.7356 28.9537L63.6616 29.2738H64.5348V29.2737ZM25.8175 20.8283L26.0603 20.8291L26.2534 20.7722L26.4467 20.7153L26.6176 20.5653L26.7886 20.4154L26.8785 20.2155L26.9686 20.0157L26.9717 19.7215L26.9749 19.4275L26.895 19.3126L26.8149 19.1977L26.6756 19.1233L26.5362 19.0486H25.9346L25.7298 19.128L25.525 19.2071L25.4062 19.3173L25.2873 19.4275L25.1939 19.6179L25.1005 19.8081L25.0829 20.1046L25.0653 20.4011L25.1521 20.5486L25.2391 20.6959L25.4069 20.7618L25.5745 20.8276L25.8175 20.8283Z" fill="#B3131B"/>
</svg>
