<svg width="90" height="50" viewBox="0 0 90 50" fill="none" xmlns="http://www.w3.org/2000/svg">
<g clip-path="url(#clip0_35731_302)">
<path d="M90 0H0V50H90V0Z" fill="#F37421"/>
<path d="M11.6538 14.0903V31.5903H16.2346V24.2703H23.7577V31.5903H28.3153V14.0903H23.7577V20.8203H16.2346V14.0903H11.6538Z" fill="white"/>
<path d="M67.7537 26.5001C67.8114 26.2101 67.9037 25.6201 67.9037 24.9401C67.9037 21.8001 66.1037 18.6001 61.373 18.6001C56.2845 18.6001 53.9768 22.1601 53.9768 25.3801C53.9768 29.3501 56.8268 31.8501 61.7999 31.8501C63.773 31.8501 65.6076 31.5901 67.1076 31.0701L66.5076 28.4001C65.2845 28.7401 64.0153 28.9201 62.4576 28.9201C60.3345 28.9201 58.4768 28.1401 58.3268 26.5101H67.7537V26.5001ZM58.2807 23.8001C58.396 22.7401 59.1807 21.2301 61.096 21.2301C63.196 21.2301 63.6691 22.8401 63.6691 23.8001H58.2807Z" fill="white"/>
<path d="M69.3576 31.5904H73.9153V25.1504C73.9153 24.8404 73.9499 24.5304 74.0076 24.2704C74.3076 23.0504 75.4499 22.2704 77.123 22.2704C77.6307 22.2704 78.023 22.3204 78.346 22.3704V18.6604C78.0114 18.6104 77.8037 18.6104 77.3883 18.6104C75.9807 18.6104 74.1807 19.3904 73.4307 21.2304H73.3153L73.1653 18.8904H69.2422C69.2999 19.9804 69.3576 21.2004 69.3576 23.0704V31.5904Z" fill="white"/>
<path fill-rule="evenodd" clip-rule="evenodd" d="M32.9422 13.3901C34.2345 13.3901 35.2845 14.3001 35.2845 15.4201C35.2845 16.5401 34.2345 17.4501 32.9422 17.4501C31.6499 17.4501 30.5999 16.5401 30.5999 15.4201C30.5999 14.3001 31.6499 13.3901 32.9422 13.3901Z" fill="#FFE700"/>
<path fill-rule="evenodd" clip-rule="evenodd" d="M42.5652 28.63H44.8499C47.146 28.63 48.1845 27.36 48.1845 26.03C48.1845 24.7 48.0691 21.7 45.2422 21.7C41.9883 21.7 42.5075 25.43 42.5306 27.38C42.5191 27.8 42.5537 28.22 42.5652 28.63ZM30.5999 18.88H35.2845V26.04C35.2845 27.37 36.1383 28.64 38.0191 28.64C38.0306 25.42 38.0191 22.1 37.8922 18.88H41.8037C41.8845 19.5 41.9652 20.12 42.0345 20.74C43.8806 17.54 49.7075 18.24 51.6691 20.95C53.6883 23.74 54.3806 31.74 44.8499 31.74H42.6345C42.6575 33.36 42.6575 34.99 42.6575 36.62H37.9729C37.9729 35.06 37.9845 33.42 37.996 31.74C32.9306 31.72 30.5999 28.94 30.5999 26.04V18.88Z" fill="white"/>
</g>
<defs>
<clipPath id="clip0_35731_302">
<rect width="90" height="50" fill="white"/>
</clipPath>
</defs>
</svg>
