<svg width="90" height="50" viewBox="0 0 90 50" fill="none" xmlns="http://www.w3.org/2000/svg">
<path d="M90 0H0V50H90V0Z" fill="#0E4C96"/>
<path d="M72.9001 36.1494C72.9001 40.3195 69.0154 43.7009 64.2207 43.7009H17.1001V13.8519C17.1001 9.68073 20.9852 6.29942 25.7801 6.29942L72.8995 6.29932L72.8996 36.1494L72.9001 36.1494Z" fill="white"/>
<path d="M57.5981 25.6538C58.9435 25.6791 60.2968 25.6022 61.637 25.6938C62.9943 25.9136 63.3215 27.6969 62.1156 28.2811C61.2933 28.666 60.3155 28.4243 59.4235 28.4923H57.5982L57.5981 25.6538ZM62.4151 22.4412C62.714 23.357 61.6968 24.1794 60.6803 24.0532H57.5981C57.6194 23.1895 57.5557 22.2522 57.6293 21.434C58.8643 21.464 60.1106 21.3724 61.3382 21.4818C61.8657 21.5969 62.3071 21.9732 62.4151 22.4412ZM69.8338 8.85906C69.8911 10.6081 69.842 12.4497 69.8584 14.2342C69.8544 21.4896 69.8667 28.7448 69.8521 36.0006C69.798 38.7197 67.0215 41.082 63.9104 41.1363C60.7961 41.1474 57.6815 41.1379 54.5671 41.141V30.1724C57.9605 30.157 61.3561 30.2031 64.7481 30.1492C66.3218 30.0633 68.045 29.1623 68.1184 27.6592C68.3038 26.1498 66.6639 25.1056 65.1071 24.9407C64.5086 24.9272 64.5263 24.7892 65.1071 24.7291C66.5916 24.4506 67.7578 23.1168 67.3209 21.781C66.9483 20.376 65.1594 19.8322 63.6711 19.8349C60.6368 19.8169 57.6018 19.8323 54.5673 19.8272C54.5871 17.7795 54.5265 15.7296 54.6002 13.6834C54.8405 11.0133 57.6869 8.81149 60.7545 8.85916L69.8338 8.85906Z" fill="url(#paint0_linear_35731_333)"/>
<path d="M20.2177 13.9603C20.295 11.2456 23.0716 8.90213 26.166 8.86256C29.2556 8.85426 32.3455 8.86136 35.4353 8.85896C35.4269 17.9422 35.4523 27.0264 35.4225 36.1091C35.3035 38.791 32.557 41.0896 29.4966 41.1369C26.4011 41.1468 23.3052 41.1383 20.2096 41.1411V29.8027C23.2165 30.4218 26.3697 30.6854 29.4371 30.2746C31.271 30.0173 33.2771 29.2328 33.8979 27.5747C34.355 26.1565 34.0976 24.6638 34.1655 23.2082V19.8278H28.8568C28.833 22.0634 28.9057 24.303 28.8184 26.5363C28.6753 27.9089 27.116 28.781 25.6307 28.7345C23.7884 28.7515 20.1384 27.5712 20.1384 27.5712C20.1292 23.3819 20.1918 18.1358 20.2177 13.9612V13.9603Z" fill="url(#paint1_linear_35731_333)"/>
<path d="M37.4956 21.1914C37.2155 21.2431 37.4393 20.3618 37.3675 20.0275C37.3865 17.9138 37.3276 15.7978 37.4001 13.6856C37.6398 11.0043 40.506 8.79694 43.584 8.8597H52.648C52.6396 17.9426 52.6649 27.0266 52.6352 36.1091C52.5156 38.7909 49.7593 41.0894 46.6881 41.1368C43.5814 41.1468 40.4744 41.1383 37.3674 41.1411V28.7187C39.4894 30.2306 42.3731 30.4659 45.0167 30.47C47.0093 30.4694 48.9907 30.2028 50.9258 29.8034V27.5276C48.7448 28.4717 46.181 29.0713 43.7632 28.5289C42.0768 28.1641 40.8525 26.7488 40.8799 25.2372C40.6844 23.6654 41.7457 22.0057 43.5244 21.5384C45.7326 20.9379 48.1397 21.3972 50.2098 22.1777C50.6533 22.3795 51.1033 22.6295 50.9258 21.9857V20.1968C47.4639 19.4816 43.7796 19.2182 40.3011 19.9965C39.2943 20.2433 38.3137 20.6173 37.4956 21.1916V21.1914Z" fill="url(#paint2_linear_35731_333)"/>
<defs>
<linearGradient id="paint0_linear_35731_333" x1="54.508" y1="25.0591" x2="69.8077" y2="25.0591" gradientUnits="userSpaceOnUse">
<stop stop-color="#007B40"/>
<stop offset="1" stop-color="#55B330"/>
</linearGradient>
<linearGradient id="paint1_linear_35731_333" x1="20.2458" y1="25.0588" x2="35.4693" y2="25.0588" gradientUnits="userSpaceOnUse">
<stop stop-color="#1D2970"/>
<stop offset="1" stop-color="#006DBA"/>
</linearGradient>
<linearGradient id="paint2_linear_35731_333" x1="37.3799" y1="25.4133" x2="52.6649" y2="25.4133" gradientUnits="userSpaceOnUse">
<stop stop-color="#6E2B2F"/>
<stop offset="1" stop-color="#E30138"/>
</linearGradient>
</defs>
</svg>
