<svg width="90" height="50" viewBox="0 0 90 50" fill="none" xmlns="http://www.w3.org/2000/svg">
<path d="M90 0H0V50H90V0Z" fill="black"/>
<path d="M79.6155 25.0008C79.6155 34.9143 70.3443 42.9508 58.9063 42.9508C47.4693 42.9508 38.197 34.9147 38.197 25.0008C38.197 15.0867 47.4692 7.0498 58.9063 7.0498C70.3447 7.0498 79.6155 15.0865 79.6155 25.0008Z" fill="#D9222A"/>
<path d="M42.9082 36.3991C42.3346 35.7962 41.8077 35.1612 41.3304 34.4981H48.6701C49.112 33.8859 49.5104 33.251 49.8636 32.5969H40.1376C39.8037 31.9786 39.511 31.3443 39.261 30.6969H50.7391C51.4298 28.9065 51.804 26.9919 51.804 25.0006C51.804 23.696 51.6434 22.4244 51.339 21.1994H38.6628C38.8225 20.5566 39.0232 19.9221 39.2638 19.2984H50.7377C50.4872 18.6512 50.1948 18.0168 49.8617 17.3981H40.1401C40.4935 16.7444 40.892 16.1097 41.333 15.4973H48.668C48.1898 14.8354 47.663 14.2011 47.0907 13.5981H42.9107C43.5534 12.9218 44.2518 12.2868 45.0006 11.6981C41.3251 8.8098 36.4463 7.0498 31.0944 7.0498C19.6565 7.0499 10.384 15.0866 10.384 25.0008C10.384 34.9143 19.6561 42.9508 31.0944 42.9508C36.4469 42.9508 41.3252 41.1912 45.0006 38.3033C45.7506 37.7137 46.4499 37.0773 47.093 36.3996H42.9082" fill="#0097D0"/>
<path d="M76.8555 35.0041C76.8555 34.6841 77.155 34.4245 77.5247 34.4245C77.8939 34.4245 78.193 34.6841 78.193 35.0041C78.193 35.3245 77.8939 35.5841 77.5247 35.5841C77.1551 35.5842 76.8555 35.3245 76.8555 35.0043V35.0041ZM77.5247 35.4449C77.8052 35.445 78.0326 35.2481 78.0329 35.0052V35.0041C78.0329 34.7613 77.8057 34.5645 77.5256 34.5645H77.5247C77.2443 34.564 77.0167 34.7606 77.0161 35.0037V35.0041C77.0159 35.2474 77.2434 35.4447 77.524 35.4449H77.5247ZM77.4339 35.2587H77.2973V34.7495H77.5453C77.5967 34.7495 77.6496 34.7499 77.6952 34.7753C77.7435 34.8037 77.7698 34.8528 77.7698 34.9024C77.7698 34.9606 77.7309 35.0137 77.6683 35.034L77.776 35.2586H77.6243L77.5349 35.0577H77.4339V35.2587ZM77.4339 34.9707H77.5098C77.5382 34.9707 77.568 34.9724 77.5935 34.9606C77.6161 34.9477 77.6282 34.9241 77.6282 34.9016C77.6271 34.8809 77.6148 34.8618 77.595 34.8502C77.5705 34.8377 77.5326 34.8402 77.5069 34.8402H77.4339V34.9707ZM44.7062 29.8503C43.8211 30.0537 42.9653 30.1528 42.0603 30.1513C39.1739 30.1488 37.6705 29.0095 37.6705 26.8312C37.6705 24.2853 39.5844 22.4128 42.1822 22.4128C44.3071 22.4128 45.6639 23.4628 45.6639 25.1074C45.6639 25.6532 45.5721 26.1845 45.3471 26.937H40.2138C40.0312 28.0003 40.9278 28.4674 42.4538 28.4674C43.3682 28.4674 44.1952 28.3249 45.1105 28.0062L44.7062 29.8503ZM43.3259 25.4352C43.3259 25.2745 43.6114 24.132 42.1259 24.107C41.3057 24.107 40.7173 24.5795 40.4793 25.4352H43.3259ZM46.4452 24.9362C46.4452 25.8766 47.0563 26.5262 48.4447 27.0098C49.5062 27.3869 49.6735 27.4956 49.6735 27.8319C49.6735 28.2981 49.2043 28.5124 48.1629 28.5065C47.3807 28.5016 46.6673 28.4195 45.8249 28.2169L45.4523 29.9323C46.2009 30.0827 47.2509 30.1323 48.181 30.1511C50.9533 30.1511 52.233 29.3644 52.233 27.6644C52.233 26.6427 51.6993 26.0411 50.3831 25.5931C49.2826 25.2122 49.1534 25.1293 49.1534 24.7847C49.1534 24.3797 49.5893 24.1747 50.4398 24.1747C50.9546 24.1747 51.6604 24.216 52.3297 24.2854L52.7057 22.5614C52.0236 22.4789 50.9883 22.413 50.3894 22.413C47.4528 22.4132 46.4365 23.5591 46.4452 24.9362ZM36.2634 30.0282H34.1101L34.1614 29.2462C33.5048 29.8632 32.6303 30.1503 31.4432 30.1503C30.0384 30.1503 29.0759 29.3179 29.0759 28.1207C29.0759 26.3013 30.7489 25.2517 33.6255 25.2517C33.9211 25.2517 34.297 25.2707 34.6831 25.3079C34.7629 25.0646 34.7846 24.96 34.7846 24.8271C34.7846 24.3291 34.3322 24.1458 33.1216 24.1458C31.9283 24.15 31.123 24.3029 30.3759 24.4771L30.7436 22.8071C32.0355 22.5224 32.8817 22.4129 33.8388 22.4129C36.0663 22.4129 37.2427 23.1696 37.2427 24.5925C37.2619 24.9721 37.1091 25.7338 37.0327 26.0671C36.9451 26.5524 36.3278 29.3645 36.2634 30.0282ZM34.3734 26.7091C34.1004 26.6849 33.9817 26.6779 33.7951 26.6779C32.3264 26.6779 31.5817 27.0566 31.5817 27.8046C31.5817 28.2738 31.9451 28.568 32.5114 28.568C33.5668 28.5679 34.3288 27.8028 34.3734 26.7091ZM56.7707 29.9102C56.064 30.0783 55.5135 30.1512 54.9179 30.1512C53.5986 30.1512 52.8784 29.5669 52.8784 28.5262C52.8371 28.2403 53.1592 26.9202 53.2322 26.5524C53.3053 26.1832 54.448 20.8032 54.448 20.8032H57.0111L56.623 22.5832H57.9376L57.5803 24.4003H56.2601C56.2601 24.4003 55.5356 27.5533 55.5356 27.7937C55.5356 28.1763 55.803 28.3424 56.4164 28.3424C56.7101 28.3424 56.9368 28.3187 57.1121 28.2732L56.7707 29.9102ZM68.2222 22.4128C66.3437 22.4128 64.876 23.0828 64.0237 24.2021L64.7635 22.5424C63.4 22.1087 62.5211 22.7275 61.726 23.6074C61.726 23.6074 61.5929 23.7537 61.4606 23.8874V22.5824H59.0539C58.728 24.8854 58.1515 27.2204 57.7005 29.527L57.592 30.029H60.1809C60.4261 28.8582 60.628 27.9078 60.829 27.1503C61.3792 25.0716 62.3046 24.4362 63.694 24.717C63.3732 25.3149 63.1973 26.0062 63.1973 26.7724C63.1973 28.6304 64.3617 30.1513 67.2529 30.1513C70.1708 30.1513 72.2834 28.8003 72.2834 25.7203C72.2833 23.8624 70.8756 22.4128 68.2222 22.4128ZM67.4687 28.3445C66.5544 28.357 66.0001 27.692 66.0001 26.6975C66.0001 25.5182 66.8092 24.1862 68.1086 24.1862C69.1571 24.1862 69.5163 24.9065 69.5163 25.6741C69.5164 27.352 68.7232 28.3445 67.4687 28.3445ZM27.8699 30.0291H25.2918L26.8241 23.0337L23.2967 30.0291H20.9467L20.5169 23.0741L18.9799 30.0291H16.6409L18.6332 20.9295H22.6616L22.9976 26.0021L25.5496 20.9295H29.9019L27.8699 30.0291Z" fill="black"/>
<path d="M72.4788 28.888C72.479 28.5681 72.7783 28.3087 73.1476 28.3085C73.5172 28.3085 73.8163 28.5685 73.8163 28.888C73.817 29.2081 73.5182 29.4681 73.1488 29.4687C72.7795 29.4693 72.4795 29.2103 72.4788 28.8902V28.888ZM73.1476 29.3293C73.4285 29.329 73.6561 29.1315 73.6562 28.888C73.6559 28.6446 73.4282 28.4476 73.1476 28.4476C72.8667 28.4476 72.6391 28.6447 72.6389 28.888C72.6391 29.1315 72.8666 29.329 73.1476 29.3293ZM73.0572 29.1427H72.9201V28.6343H73.1682C73.2201 28.6343 73.273 28.6343 73.3187 28.6593C73.3659 28.6873 73.3932 28.7361 73.3932 28.7864C73.3932 28.8444 73.3543 28.898 73.2913 28.9181L73.399 29.1427H73.247L73.1582 28.9418H73.0572V29.1427ZM73.0572 28.8539H73.1331C73.1611 28.8539 73.1913 28.8556 73.2168 28.8443C73.2387 28.8308 73.2515 28.8088 73.2509 28.7854C73.2502 28.7648 73.2381 28.7458 73.2182 28.7342C73.1937 28.7212 73.1558 28.7246 73.1303 28.7246H73.0572V28.8539ZM45.3522 29.2893C44.4677 29.4926 43.6114 29.5922 42.707 29.5905C39.8204 29.588 38.3171 28.4485 38.3171 26.2697C38.3171 23.7247 40.2302 21.8516 42.8282 21.8516C44.9537 21.8516 46.3099 22.9014 46.3099 24.5459C46.3099 25.0926 46.2176 25.6229 45.9937 26.376H40.8605C40.6779 27.4389 41.5736 27.9068 43.0999 27.9068C44.0143 27.9068 44.8408 27.7643 45.7571 27.4451L45.3522 29.2893ZM43.972 24.8743C43.972 24.7139 44.257 23.571 42.7721 23.5463C41.9518 23.5463 41.3639 24.0193 41.1254 24.8743H43.972ZM47.0917 24.3747C47.0917 25.3155 47.7018 25.9647 49.0907 26.4493C50.1527 26.8261 50.3194 26.935 50.3194 27.2705C50.3194 27.7372 49.8504 27.9515 48.8094 27.9455C48.0267 27.941 47.3132 27.8585 46.4713 27.6559L46.0978 29.3705C46.8468 29.5222 47.8975 29.5718 48.8271 29.5905C51.5992 29.5905 52.8794 28.8035 52.8794 27.1035C52.8794 26.0818 52.3454 25.4797 51.0286 25.0322C49.9281 24.6514 49.7992 24.5684 49.7992 24.2239C49.7992 23.8188 50.2357 23.6139 51.0853 23.6139C51.6011 23.6139 52.3064 23.6555 52.9761 23.725L53.3511 22.0004C52.669 21.918 51.6343 21.8522 51.0358 21.8522C48.0984 21.8522 47.0825 22.9975 47.0917 24.3747ZM36.9099 29.4677H34.7561L34.808 28.6857C34.1508 29.3015 33.2763 29.589 32.0898 29.589C30.6849 29.589 29.722 28.7564 29.722 27.5601C29.722 25.7398 31.3945 24.6906 34.2715 24.6906C34.5671 24.6906 34.9426 24.7097 35.3296 24.7468C35.4094 24.5035 35.4306 24.3993 35.4306 24.266C35.4306 23.7677 34.9787 23.5847 33.7681 23.5847C32.5749 23.589 31.7696 23.7422 31.0224 23.916L31.3898 22.2464C32.6821 21.9614 33.5277 21.8519 34.4854 21.8519C36.7128 21.8519 37.8888 22.6085 37.8888 24.031C37.9081 24.4111 37.7551 25.1722 37.6791 25.5064C37.5912 25.9914 36.9739 28.8034 36.9099 29.4677ZM35.0191 26.1479C34.747 26.1235 34.6277 26.1167 34.4407 26.1167C32.9729 26.1167 32.2277 26.4954 32.2277 27.2434C32.2277 27.7129 32.5916 28.0068 33.1571 28.0068C34.2133 28.0068 34.9753 27.2414 35.0191 26.1479ZM57.4164 29.3497C56.7102 29.5172 56.1591 29.5905 55.5639 29.5905C54.2447 29.5905 53.525 29.0059 53.525 27.9651C53.4832 27.6797 53.8059 26.3592 53.8783 25.9914C53.9514 25.6222 55.0941 20.2422 55.0941 20.2422H57.6567L57.2697 22.0222H58.5841L58.2268 23.8392H56.9068C56.9068 23.8392 56.1817 26.9922 56.1817 27.2327C56.1817 27.6152 56.4494 27.7806 57.0626 27.7806C57.3558 27.7806 57.5827 27.7577 57.7582 27.7115L57.4164 29.3497ZM70.1629 25.113C70.1629 26.7905 69.3691 27.7839 68.1142 27.7839C67.2004 27.7951 66.6459 27.1314 66.6459 26.1364C66.6459 24.9572 67.4546 23.6251 68.7541 23.6251C69.8033 23.6251 70.1629 24.3464 70.1629 25.113ZM72.9296 25.1597C72.9296 23.3017 71.521 21.8517 68.8687 21.8517C65.8168 21.8517 63.8437 23.6144 63.8437 26.2115C63.8437 28.0694 65.0072 29.5906 67.8994 29.5906C70.8171 29.5905 72.9297 28.2393 72.9296 25.1597ZM59.6996 22.0214C59.3741 24.3243 58.7976 26.6589 58.3471 28.9664L58.2379 29.4685H60.8266C61.7597 25.0126 62.0727 23.7431 64.0274 24.1902L64.9677 22.0814C63.6044 21.6476 62.7264 22.2668 61.9322 23.1472C62.0037 22.7511 62.1389 22.3689 62.1062 22.0214H59.6996ZM28.5157 29.4684H25.9384L27.4701 22.4725L23.9422 29.4684H21.5927L21.1629 22.5129L19.6259 29.4684H17.2869L19.2786 20.3684H23.308L23.521 26.0018L26.3566 20.3684H30.5479L28.5157 29.4684Z" fill="white"/>
</svg>
