<svg width="90" height="50" viewBox="0 0 90 50" fill="none" xmlns="http://www.w3.org/2000/svg">
<path d="M90 0H0V50H90V0Z" fill="#16366F"/>
<path d="M51.8088 24.9998C51.8088 34.9141 42.5353 42.9498 31.0961 42.9498C19.6568 42.9498 10.3845 34.9137 10.3845 24.9998C10.3845 15.0865 19.6571 7.0498 31.0961 7.0498C42.5349 7.0498 51.8088 15.0868 51.8088 24.9998Z" fill="#D9222A"/>
<path d="M58.9027 7.0498C53.5511 7.0498 48.6746 8.8094 44.9988 11.6964C44.25 12.2853 43.551 12.9201 42.9075 13.596H47.092C47.665 14.1997 48.1923 14.8348 48.6711 15.4973H41.3286C40.887 16.1094 40.4886 16.7442 40.1354 17.3981H49.8637C50.1975 18.0166 50.4903 18.6511 50.7406 19.2985H39.2585C39.0172 19.922 38.8163 20.5566 38.6565 21.1994H51.3419C51.6521 22.4484 51.8085 23.7225 51.8081 25.0002C51.8081 26.9936 51.4327 28.9115 50.7404 30.7022H39.2582C39.5079 31.3501 39.8005 31.9847 40.1346 32.6032H49.8635C49.5099 33.2572 49.1111 33.8921 48.6696 34.5045H41.3282C41.8075 35.1674 42.3355 35.8024 42.9073 36.4041H47.0909C46.4482 37.0813 45.749 37.7167 44.999 38.3053C48.6751 41.192 53.551 42.9507 58.9028 42.9507C70.3418 42.9506 79.6155 34.9145 79.6155 25.0007C79.6155 15.0877 70.342 7.0507 58.9028 7.0507" fill="#EE9F2D"/>
<path d="M76.8555 35.0062C76.8555 34.6861 77.1546 34.4261 77.5243 34.4261C77.894 34.4261 78.193 34.6861 78.193 35.0062C78.193 35.3261 77.894 35.5861 77.5243 35.5861C77.1548 35.586 76.8554 35.3263 76.8555 35.0062ZM77.5243 35.447C77.8052 35.4469 78.0328 35.2495 78.0329 35.0062C78.0329 34.7629 77.8053 34.5658 77.5247 34.5658H77.5243C77.244 34.5654 77.0166 34.7621 77.0161 35.005V35.0063C77.0158 35.2495 77.2431 35.4469 77.5237 35.4471C77.5238 35.447 77.524 35.447 77.5243 35.447ZM77.4339 35.261H77.2968V34.7516H77.5448C77.5967 34.7516 77.6496 34.7516 77.6954 34.777C77.743 34.8048 77.7699 34.854 77.7699 34.9048C77.7699 34.9618 77.731 35.0152 77.668 35.036L77.7762 35.261H77.6244L77.5344 35.0594H77.434L77.4339 35.261ZM77.4339 34.972H77.5098C77.5382 34.972 77.568 34.974 77.5935 34.962C77.6161 34.9495 77.6276 34.9261 77.6276 34.9036C77.6276 34.8841 77.6138 34.8616 77.5944 34.852C77.5705 34.8389 77.5326 34.8419 77.507 34.8419H77.4339V34.972ZM26.2608 26.9657C26.0249 26.942 25.921 26.9356 25.7589 26.9356C24.4845 26.9356 23.8393 27.3145 23.8393 28.0624C23.8393 28.5235 24.1543 28.817 24.6455 28.817C25.5614 28.817 26.2215 28.061 26.2608 26.9657ZM27.896 30.2653H26.033L26.0758 29.4977C25.5075 30.1044 24.7493 30.3927 23.719 30.3927C22.5003 30.3927 21.6647 29.5677 21.6647 28.3698C21.6647 26.5674 23.1181 25.5158 25.6128 25.5158C25.8676 25.5158 26.1945 25.5358 26.5291 25.5727C26.5989 25.3286 26.6171 25.2241 26.6171 25.0927C26.6171 24.6019 26.2253 24.4189 25.1748 24.4189C24.0749 24.4081 23.1676 24.646 22.795 24.7523C22.8186 24.6293 23.1066 23.0865 23.1066 23.0865C24.2272 22.8019 24.9662 22.6948 25.7979 22.6948C27.7286 22.6948 28.7513 23.446 28.7495 24.866C28.7531 25.2465 28.6806 25.716 28.5671 26.3331C28.3719 27.4062 27.9533 29.7049 27.896 30.2653ZM20.7239 30.2653H18.4753L19.7633 23.2656L16.8873 30.2653H15.355L15.1658 23.3056L13.8119 30.2653H11.707L13.4653 21.1599H16.6983L16.8945 26.2565L18.8666 21.1599H22.4628L20.7239 30.2653ZM61.6831 26.9657C61.4481 26.942 61.3437 26.9356 61.1821 26.9356C59.9082 26.9356 59.2628 27.3145 59.2628 28.0624C59.2628 28.5235 59.5773 28.817 60.0685 28.817C60.9846 28.817 61.6452 28.061 61.6831 26.9657ZM63.3196 30.2653H61.4567L61.4988 29.4977C60.9306 30.1044 60.1719 30.3927 59.1427 30.3927C57.9235 30.3927 57.0888 29.5677 57.0888 28.3698C57.0888 26.5674 58.5412 25.5158 61.0364 25.5158C61.2912 25.5158 61.6176 25.5358 61.9518 25.5727C62.0215 25.3286 62.0399 25.2241 62.0399 25.0927C62.0399 24.6019 61.6485 24.4189 60.598 24.4189C59.4981 24.4081 58.5917 24.646 58.2177 24.7523C58.2413 24.6293 58.5302 23.0865 58.5302 23.0865C59.651 22.8019 60.3894 22.6948 61.2201 22.6948C63.1517 22.6948 64.1744 23.446 64.1725 24.866C64.1762 25.2465 64.1037 25.716 63.9902 26.3331C63.7962 27.4062 63.3764 29.7049 63.3196 30.2653ZM37.89 30.1528C37.2745 30.3208 36.7948 30.3927 36.2746 30.3927C35.125 30.3927 34.4977 29.8202 34.4977 28.766C34.4813 28.439 34.663 27.5781 34.8058 26.7923C34.9356 26.1006 35.7808 21.7393 35.7808 21.7393H38.0159L37.7549 22.8602H39.1049L38.7999 24.6398H37.4451C37.1855 26.0481 36.8158 27.8023 36.8115 28.0348C36.8115 28.4165 37.0465 28.5831 37.5811 28.5831C37.8374 28.5831 38.0358 28.5605 38.1875 28.5131L37.89 30.1528ZM44.7428 30.0928C43.975 30.2961 43.2341 30.3945 42.4491 30.3928C39.9472 30.3907 38.6429 29.2582 38.6429 27.0896C38.6429 24.5583 40.3021 22.6949 42.5544 22.6949C44.3971 22.6949 45.574 23.7382 45.574 25.3745C45.574 25.9174 45.4933 26.4474 45.2986 27.1957H40.8476C40.6972 28.2699 41.4903 28.7174 42.7904 28.7174C43.5906 28.7174 44.3121 28.5744 45.1145 28.2511L44.7428 30.0928ZM43.4866 25.7028C43.499 25.5485 43.7236 24.3811 42.4466 24.3811C41.7346 24.3811 41.2255 24.8515 41.0182 25.7028H43.4866ZM29.2458 25.2011C29.2458 26.1378 29.7698 26.7836 30.9583 27.2687C31.8689 27.6396 32.0098 27.7496 32.0098 28.0857C32.0098 28.5474 31.6082 28.7557 30.7184 28.7557C30.0478 28.7557 29.4238 28.665 28.704 28.4637C28.704 28.4637 28.4083 30.0957 28.3948 30.1738C28.9059 30.2704 29.3617 30.3599 30.7348 30.3928C33.1073 30.3928 34.203 29.6099 34.203 27.9178C34.203 26.9003 33.7443 26.3032 32.618 25.8545C31.6751 25.4795 31.5669 25.3957 31.5669 25.0499C31.5669 24.6495 31.9405 24.4453 32.6675 24.4453C33.1088 24.4453 33.7117 24.4861 34.2828 24.5566L34.603 22.8391C34.0208 22.7591 33.1381 22.6949 32.6242 22.6949C30.1088 22.6949 29.2381 23.8336 29.2458 25.2011ZM55.6793 22.8895C56.3039 22.8895 56.8861 23.0315 57.6885 23.3815L58.0562 21.4053C57.7269 21.2933 56.5673 20.6353 55.5852 20.6353C54.0803 20.6353 52.8083 21.2823 51.9136 22.3503C50.6086 21.9757 50.0722 22.7328 49.4145 23.487L48.8304 23.6049C48.8746 23.3566 48.9146 23.1099 48.9011 22.8603H46.8362C46.5541 25.152 46.054 27.4733 45.6627 29.7678L45.5607 30.2654H47.8102C48.1857 28.1511 48.3915 26.7973 48.5165 25.8812L49.3636 25.4728C49.4901 25.0648 49.8862 24.927 50.6808 24.9436C50.574 25.4444 50.5206 25.9526 50.5213 26.462C50.5213 28.8845 52.0295 30.3928 54.4501 30.3928C55.0736 30.3928 55.6088 30.3216 56.4372 30.1271L56.833 28.0511C56.0877 28.3691 55.476 28.5187 54.9222 28.5187C53.6151 28.5187 52.8241 27.6825 52.8241 26.3003C52.824 24.2953 54.0005 22.8895 55.6793 22.8895Z" fill="black"/>
<path d="M21.3704 29.7238H19.1214L20.4102 22.725L17.5343 29.7238H16.0017L15.8123 22.765L14.4585 29.7238H12.3535L14.1117 20.6196H17.3448L17.4357 26.2558L19.617 20.6196H23.1093L21.3704 29.7238Z" fill="white"/>
<path d="M74.7137 21.1602L74.2154 23.791C73.6004 23.0898 72.9399 22.5823 72.0678 22.5823C70.9332 22.5823 69.9005 23.3277 69.2245 24.4248C68.2832 24.2556 67.3095 23.9685 67.3095 23.9685L67.309 23.9752C67.385 23.3619 67.4152 22.9877 67.4085 22.8606H65.3431C65.0619 25.1523 64.562 27.4736 64.1712 29.7681L64.0681 30.2657H66.3172C66.621 28.556 66.8537 27.1364 67.0248 26.0106C67.7932 25.4089 68.1778 24.8839 68.9542 24.9189C68.6105 25.6395 68.409 26.4693 68.409 27.3206C68.409 29.1719 69.4898 30.3931 71.1245 30.3931C71.9484 30.3931 72.5806 30.1469 73.1975 29.5761L73.0922 30.2645H75.2191L76.9317 21.1602H74.7137ZM71.9018 28.5544C71.1363 28.5544 70.7499 28.0635 70.7499 27.0947C70.7499 25.6394 71.4735 24.6072 72.4936 24.6072C73.2661 24.6072 73.6844 25.1176 73.6844 26.058C73.6845 27.5261 72.9495 28.5544 71.9018 28.5544Z" fill="black"/>
<path d="M26.9065 26.4259C26.6709 26.4023 26.5665 26.3959 26.405 26.3959C25.1305 26.3959 24.4857 26.7747 24.4857 27.5226C24.4857 27.983 24.8007 28.2773 25.2911 28.2773C26.2078 28.2772 26.8679 27.5214 26.9065 26.4259ZM28.5425 29.7243H26.6795L26.7219 28.958C26.154 29.5634 25.3949 29.853 24.3656 29.853C23.1463 29.853 22.3113 29.028 22.3113 27.8301C22.3113 26.0269 23.7641 24.9759 26.2593 24.9759C26.5142 24.9759 26.841 24.9959 27.1752 25.033C27.2449 24.7888 27.2631 24.6843 27.2631 24.5522C27.2631 24.0614 26.8719 23.8792 25.8213 23.8792C24.7209 23.8684 23.8142 24.1064 23.441 24.2114C23.4645 24.0888 23.7525 22.5476 23.7525 22.5476C24.8728 22.2618 25.6127 22.1546 26.4434 22.1546C28.3747 22.1546 29.3977 22.9064 29.3959 24.3251C29.3992 24.7071 29.3261 25.1763 29.2131 25.7926C29.0185 26.8651 28.5993 29.1651 28.5425 29.7243ZM58.7017 20.8651L58.3334 22.8418C57.5315 22.4922 56.9488 22.3497 56.3249 22.3497C54.646 22.3497 53.4692 23.7555 53.4692 25.7604C53.4692 27.1425 54.2604 27.9785 55.5672 27.9785C56.1211 27.9785 56.7321 27.8293 57.4773 27.5108L57.0827 29.5858C56.2537 29.7817 55.7193 29.853 55.095 29.853C52.6747 29.853 51.1662 28.3446 51.1662 25.9221C51.1662 22.6671 53.2499 20.3921 56.2302 20.3921C57.2118 20.3922 58.372 20.753 58.7017 20.8651ZM62.3297 26.4259C62.0942 26.4023 61.9903 26.3959 61.8282 26.3959C60.5541 26.3959 59.9089 26.7747 59.9089 27.5226C59.9089 27.983 60.2238 28.2773 60.7147 28.2773C61.6306 28.2772 62.2911 27.5214 62.3297 26.4259ZM63.9657 29.7243H62.1022L62.1449 28.958C61.5768 29.5634 60.818 29.853 59.7888 29.853C58.57 29.853 57.7345 29.028 57.7345 27.8301C57.7345 26.0269 59.1877 24.9759 61.682 24.9759C61.9374 24.9759 62.2638 24.9959 62.5983 25.033C62.6676 24.7888 62.6863 24.6843 62.6863 24.5522C62.6863 24.0614 62.2949 23.8792 61.2445 23.8792C60.1445 23.8684 59.2372 24.1064 58.8642 24.2114C58.8877 24.0888 59.1762 22.5476 59.1762 22.5476C60.2965 22.2618 61.0357 22.1546 61.8665 22.1546C63.7983 22.1546 64.8208 22.9064 64.8184 24.3251C64.8223 24.7071 64.7497 25.1763 64.6362 25.7926C64.4421 26.8651 64.0219 29.1651 63.9657 29.7243ZM38.5361 29.6121C37.9202 29.7801 37.4404 29.853 36.9207 29.853C35.7711 29.853 35.1438 29.2804 35.1438 28.2264C35.1279 27.8983 35.3096 27.0383 35.4524 26.2526C35.5817 25.56 36.427 21.1993 36.427 21.1993H38.6616L38.401 22.3205H39.5481L39.2428 24.0993H38.0919C37.8322 25.5084 37.4615 27.2612 37.4577 27.4942C37.4577 27.8772 37.6933 28.0425 38.2274 28.0425C38.4836 28.0425 38.6818 28.0208 38.8337 27.9733L38.5361 29.6121ZM45.389 29.553C44.6217 29.7563 43.8798 29.8543 43.0952 29.853C40.5932 29.8509 39.289 28.7184 39.289 26.5497C39.289 24.0176 40.9482 22.1547 43.2005 22.1547C45.0432 22.1547 46.2201 23.1976 46.2201 24.8347C46.2201 25.378 46.1394 25.908 45.9453 26.6559H41.4943C41.3436 27.73 42.1369 28.178 43.437 28.178C44.2367 28.178 44.9587 28.0346 45.7605 27.7104L45.389 29.553ZM44.1322 25.1618C44.1457 25.008 44.3698 23.8401 43.0923 23.8401C42.3808 23.8401 41.8716 24.3118 41.6644 25.1618H44.1322ZM29.8915 24.6614C29.8915 25.5979 30.4155 26.243 31.604 26.7289C32.5145 27.0997 32.6554 27.2101 32.6554 27.5459C32.6554 28.0076 32.2535 28.2159 31.3646 28.2159C30.6934 28.2159 30.0694 28.1251 29.3492 27.9239C29.3492 27.9239 29.0545 29.5559 29.0411 29.6339C29.5511 29.7306 30.0073 29.8189 31.3804 29.853C33.7535 29.853 34.8487 29.0701 34.8487 27.3784C34.8487 26.3604 34.3905 25.7634 33.2636 25.3147C32.3212 24.9389 32.2122 24.8564 32.2122 24.5101C32.2122 24.1101 32.5866 23.9043 33.3131 23.9043C33.754 23.9043 34.3569 23.9463 34.9289 24.0168L35.2487 22.2988C34.667 22.2188 33.7843 22.1547 33.2703 22.1547C30.7544 22.1547 29.8843 23.2926 29.8915 24.6614ZM75.8665 29.7243H73.7391L73.8449 29.035C73.228 29.6067 72.5959 29.853 71.7718 29.853C70.1371 29.853 69.0568 28.6317 69.0568 26.7805C69.0568 24.3175 70.7323 22.2412 72.7156 22.2412C73.5876 22.2412 74.2479 22.55 74.8622 23.2508L75.3612 20.62H77.579L75.8665 29.7243ZM72.5497 28.0134C73.5969 28.0134 74.3324 26.9851 74.3324 25.5181C74.3324 24.5776 73.9136 24.0672 73.1411 24.0672C72.1213 24.0672 71.3969 25.0989 71.3969 26.5547C71.3968 27.5233 71.7843 28.0134 72.5497 28.0134ZM65.9909 22.3205C65.7095 24.6122 65.2094 26.9335 64.8184 29.2268L64.7156 29.7243H66.9645C67.7689 25.1968 67.9635 24.3126 69.2247 24.4234C69.4257 23.4968 69.7995 22.6851 70.0784 22.2755C69.1365 22.1055 68.6106 22.5668 67.9221 23.443C67.9765 23.0643 68.0761 22.6964 68.0563 22.3205H65.9909ZM47.4809 22.3205C47.1987 24.6122 46.6986 26.9335 46.3078 29.2268L46.2055 29.7243H48.4555C49.2588 25.1968 49.4531 24.3126 50.7134 24.4234C50.9154 23.4968 51.2894 22.6851 51.5673 22.2755C50.6264 22.1055 50.1 22.5668 49.4121 23.443C49.4664 23.0643 49.565 22.6964 49.5462 22.3205H47.4809ZM76.8544 29.1447C76.8544 28.8233 77.1539 28.5647 77.5232 28.5647C77.892 28.5644 78.1915 28.8234 78.1918 29.1432V29.1447C78.1917 29.4647 77.8924 29.7241 77.5232 29.7243C77.1539 29.7241 76.8546 29.4647 76.8544 29.1447ZM77.5232 29.5851C77.8038 29.5852 78.0312 29.3881 78.0312 29.145V29.1448C78.0315 28.9015 77.8041 28.7042 77.5236 28.704H77.5232C77.2422 28.7041 77.0145 28.9014 77.0144 29.1448C77.0148 29.388 77.2424 29.5851 77.5232 29.5851ZM77.4327 29.3981H77.2956V28.8897H77.5442C77.5956 28.8897 77.6489 28.8905 77.6937 28.9151C77.7417 28.9434 77.7692 28.9918 77.7692 29.0425C77.7692 29.1 77.7302 29.1538 77.6667 29.1742L77.7753 29.3978H77.6231L77.5331 29.197H77.4327V29.3978V29.3981ZM77.4327 29.1101H77.5082C77.5364 29.1101 77.5674 29.1119 77.5923 29.1001C77.6148 29.0876 77.6263 29.064 77.6263 29.0414C77.6253 29.0204 77.613 29.001 77.5932 28.989C77.5697 28.9773 77.5307 28.9805 77.5052 28.9805H77.4326L77.4327 29.1101Z" fill="white"/>
</svg>
