<svg width="90" height="50" viewBox="0 0 90 50" fill="none" xmlns="http://www.w3.org/2000/svg">
<g clip-path="url(#clip0_35731_278)">
<path d="M90 0H0V50H90V0Z" fill="white"/>
<path d="M62.7808 24.0503V34.8503H69.7038V28.4503H77.55C80.85 28.4303 83.6538 26.6003 84.7154 24.0503H62.7808Z" fill="#37A72E"/>
<path d="M61.8577 15.1499C62.2615 19.5599 67.0846 23.0499 72.9692 23.0499C72.9923 23.0499 85.0038 23.0499 85.0038 23.0499C85.0961 22.6499 85.1423 22.2299 85.1423 21.7999C85.1423 18.1399 81.7384 15.1799 77.5269 15.1499H61.8577Z" fill="url(#paint0_linear_35731_278)"/>
<path d="M51.6116 22.9399C51.6923 22.8199 51.8193 22.7499 51.9808 22.7499C52.2116 22.7499 52.3847 22.9099 52.3962 23.0999V34.7499H59.3193V15.1499H52.3962C51.5193 15.1799 50.527 15.7299 50.1577 16.4199L44.6539 26.6599C44.6423 26.6999 44.6193 26.7399 44.5962 26.7799C44.5154 26.8799 44.377 26.9499 44.2154 26.9499C43.9616 26.9499 43.7539 26.7699 43.7539 26.5499V15.1499H36.8308V34.7499H43.7539C44.6193 34.7099 45.5885 34.1599 45.9577 33.4799L51.6116 22.9699C51.6 22.9599 51.6116 22.9499 51.6116 22.9399Z" fill="#37A72E"/>
<path d="M25.7654 23.2801L21.7154 34.7501H16.7308L12.6923 23.2701C12.6577 23.0901 12.4731 22.9501 12.2423 22.9501C11.9885 22.9501 11.7923 23.1301 11.7923 23.3401V34.7401H4.86926V15.1401H10.8116H12.577C13.8462 15.1401 15.1846 16.0001 15.5539 17.0501L18.9231 26.6001C19.0962 27.0801 19.3616 27.0701 19.5346 26.6001L22.9039 17.0501C23.2731 15.9901 24.6116 15.1401 25.8808 15.1401H27.6462H33.5885V34.7401H26.6654V23.3401C26.6654 23.3401 26.6654 23.3401 26.6654 23.3301C26.6654 23.1101 26.4577 22.9401 26.2154 22.9401C25.9846 22.9501 25.8 23.0901 25.7654 23.2801Z" fill="#37A72E"/>
</g>
<defs>
<linearGradient id="paint0_linear_35731_278" x1="61.8605" y1="19.0999" x2="85.1409" y2="19.0999" gradientUnits="userSpaceOnUse">
<stop stop-color="#00A0E5"/>
<stop offset="1" stop-color="#0077C3"/>
</linearGradient>
<clipPath id="clip0_35731_278">
<rect width="90" height="50" fill="white"/>
</clipPath>
</defs>
</svg>
