<svg width="90" height="50" viewBox="0 0 90 50" fill="none" xmlns="http://www.w3.org/2000/svg">
<path d="M90 0H0V50H90V0Z" fill="white"/>
<path d="M25.0467 7H41.6618C43.9803 7 45.4292 8.63869 44.8858 10.6428L37.1456 39.3573C36.6023 41.3612 34.2717 43 31.9533 43H15.3382C13.0197 43 11.5708 41.3613 12.1142 39.3573L19.8541 10.6428C20.3976 8.6283 22.716 7 25.0345 7H25.0467Z" fill="#D10429"/>
<path d="M39.8085 7H58.5866C60.864 7 59.8321 8.63869 59.2984 10.6428L51.6947 39.3573C51.1609 41.3612 51.327 43 49.0495 43H30.2725C27.9832 43 26.5716 41.3613 27.1172 39.3573L34.7208 10.6428C35.2545 8.6283 37.5319 7 39.8215 7H39.8096H39.8085Z" fill="#022E64"/>
<path d="M58.046 7H74.6619C76.9803 7 78.4293 8.63869 77.8858 10.6428L70.1459 39.3573C69.6023 41.3612 67.2718 43 64.9535 43H48.3388C46.0083 43 44.5714 41.3613 45.1148 39.3573L52.8548 10.6428C53.3981 8.6283 55.7165 7 58.0349 7H58.0471H58.046Z" fill="#076F74"/>
<path d="M55.6757 34.3628H57.1815L57.61 32.9891H56.1157L55.6757 34.3628ZM56.8802 30.5823L56.359 32.2088C56.359 32.2088 56.9266 31.934 57.2393 31.8461C57.552 31.7801 58.0153 31.7251 58.0153 31.7251L58.3744 30.5933H56.8688L56.8802 30.5823ZM57.6331 28.2527L57.1351 29.8131C57.1351 29.8131 57.6911 29.5713 58.0038 29.4946C58.3165 29.4176 58.7798 29.3956 58.7798 29.3956L59.1389 28.2637H57.6447L57.6331 28.2527ZM60.9575 28.2527L59.0115 34.3516H59.5327L59.1273 35.6154H58.6061L58.4787 36H56.6253L56.7529 35.6154H53L53.3706 34.4507H53.7528L55.7221 28.2528L56.1159 27H58.0039L57.8069 27.6263C57.8069 27.6263 58.3049 27.2857 58.7916 27.1647C59.2665 27.044 62 27 62 27L61.5946 28.2418H60.946L60.9575 28.2527Z" fill="#FEFEFE"/>
<path d="M61.4541 27.0001H63.5275L63.5514 27.7119C63.5395 27.8323 63.6467 27.8871 63.8969 27.8871H64.314L63.9327 29.0591H62.8125C61.8473 29.1248 61.4779 28.7415 61.5017 28.3144L61.4659 27.011L61.4541 27.0001ZM61.7093 32.5754H59.7313L60.0647 31.5351H62.3288L62.6505 30.5822H60.4223L60.8035 29.4104H67L66.6186 30.5822H64.5334L64.2116 31.5351H66.2969L65.9512 32.5754H63.6991L63.294 33.0135H64.2115L64.4379 34.3276C64.4617 34.459 64.4617 34.5467 64.5093 34.6015C64.5571 34.6453 64.8312 34.6672 64.986 34.6672H65.2601L64.8311 35.9485H64.128C64.0209 35.9485 63.854 35.9376 63.6276 35.9376C63.4131 35.9156 63.2702 35.8061 63.1272 35.7404C62.996 35.6857 62.8054 35.5433 62.7578 35.2915L62.5432 33.9773L61.5185 35.2696C61.1967 35.6747 60.756 35.9923 60.0051 35.9923H58.5752L58.9564 34.8533H59.5046C59.6596 34.8533 59.8027 34.7987 59.91 34.7438C60.0172 34.7 60.1124 34.6562 60.2078 34.514L61.7093 32.5754ZM40.0726 29.7249H45.3038L44.9224 30.8748H42.8371L42.5155 31.8493H44.6604L44.2672 33.0322H42.1342L41.6099 34.6201C41.5503 34.7953 42.1223 34.8172 42.3248 34.8172L43.3972 34.6858L42.9682 36H40.5611C40.3706 36 40.2276 35.9781 40.013 35.9343C39.8103 35.8905 39.7151 35.8029 39.6317 35.6825C39.5481 35.551 39.4051 35.4524 39.5004 35.1677L40.1916 33.0651H39L39.3932 31.8605H40.5848L40.9065 30.8858H39.7151L40.0965 29.7358L40.0726 29.7249ZM43.6868 27.6462H45.8317L45.4385 28.8398H42.5071L42.1854 29.0918C42.0424 29.2123 42.0067 29.1685 41.8279 29.2561C41.6612 29.3326 41.3156 29.4859 40.8627 29.4859H39.9213L40.3026 28.3361H40.5886C40.827 28.3361 40.9939 28.3141 41.0772 28.2704C41.1725 28.2157 41.2799 28.0951 41.3869 27.8979L41.9231 27H44.0562L43.6868 27.6571V27.6462ZM47.7294 29.6175C47.7294 29.6175 48.3132 29.1248 49.3143 28.9715C49.5407 28.9277 50.9707 28.9494 50.9707 28.9494L51.1852 28.2923H48.1703L47.7293 29.6285L47.7294 29.6175ZM50.5654 30.1212H47.5744L47.3957 30.6797H49.9935C50.3032 30.6469 50.3629 30.6906 50.3867 30.6688L50.5773 30.1212H50.5654ZM46.6809 27.011H48.504L48.2419 27.8543C48.2419 27.8543 48.8139 27.4273 49.219 27.2738C49.6242 27.1424 50.5297 27.011 50.5297 27.011L53.485 27.0001L52.4721 30.0884C52.3052 30.6141 52.1027 30.9536 51.9835 31.1179C51.8764 31.2712 51.7452 31.4135 51.4831 31.5449C51.2328 31.6654 51.0062 31.742 50.7919 31.753C50.6013 31.7639 50.2914 31.7749 49.8863 31.7749H47.0384L46.2399 34.2171C46.1685 34.458 46.1327 34.5783 46.1804 34.644C46.2161 34.6988 46.3233 34.7645 46.4545 34.7645L47.7056 34.655L47.2765 35.9911H45.8705C45.4177 35.9911 45.0959 35.9802 44.8695 35.9691C44.6551 35.9473 44.4285 35.9691 44.2736 35.8597C44.1426 35.7502 43.9402 35.6078 43.9519 35.4653C43.9639 35.3339 44.0234 35.1149 44.1189 34.8082L46.6809 27.011Z" fill="#FEFEFE"/>
<path d="M52.0996 31.2755L51.9306 31.9712C51.8584 32.1861 51.7979 32.3499 51.6048 32.4932C51.3996 32.6364 51.1704 32.7899 50.6154 32.7899L49.5897 32.8308L49.5776 33.6085C49.5656 33.8232 49.6381 33.8027 49.6741 33.8437C49.7224 33.8846 49.7585 33.8949 49.8068 33.9153L50.1326 33.8948L51.1103 33.8539L50.6999 35H49.5776C48.7932 35 48.2019 34.9794 48.0208 34.8567C47.8278 34.7543 47.8036 34.6315 47.8036 34.4064L47.8759 31.3571H49.6741L49.65 31.9812H50.0844C50.2292 31.9812 50.338 31.971 50.3982 31.9403C50.4583 31.9096 50.4947 31.8584 50.5189 31.7869L50.6999 31.2957H52.1118L52.0996 31.2755ZM26.5181 16C26.4578 16.2456 25.2993 20.7581 25.2993 20.7581C25.0458 21.6688 24.8648 22.3238 24.2615 22.7433C23.9115 22.9888 23.5012 23.1014 23.0306 23.1014C22.2703 23.1014 21.8359 22.7842 21.7635 22.1805L21.7514 21.9759C21.7514 21.9759 21.9806 20.7581 21.9806 20.7479C21.9806 20.7479 23.1875 16.6344 23.4047 16.092C23.4167 16.0614 23.4167 16.0409 23.4167 16.0306C21.0635 16.0512 20.6412 16.0306 20.6171 16C20.605 16.0409 20.5447 16.2967 20.5447 16.2967L19.3137 20.9322L19.205 21.321L19 22.6104C19 22.9889 19.0844 23.3061 19.2655 23.562C19.8326 24.401 21.4377 24.5238 22.3427 24.5238C23.5133 24.5238 24.6114 24.3089 25.3475 23.9303C26.6388 23.2856 26.9766 22.2727 27.2663 21.3825L27.4111 20.9219C27.4111 20.9219 28.6541 16.655 28.8713 16.1024C28.8833 16.0717 28.8833 16.0512 28.8955 16.041C27.1818 16.0512 26.687 16.041 26.5181 16.0103V16ZM33.4018 24.4821C32.569 24.4718 32.2673 24.4718 31.2899 24.5128L31.2536 24.4514C31.3381 24.1341 31.4346 23.8272 31.507 23.51L31.6277 23.0802C31.8087 22.4151 31.9777 21.6272 32.0018 21.3919C32.026 21.2486 32.0741 20.8905 31.5915 20.8905C31.3863 20.8905 31.1812 20.9723 30.9641 21.0541C30.8433 21.4123 30.614 22.4151 30.4933 22.8654C30.2519 23.8272 30.2399 23.9397 30.1313 24.4105L30.0589 24.4718C29.2022 24.4617 28.9005 24.4617 27.9109 24.5026L27.8626 24.4309C28.0316 23.8579 28.1884 23.2849 28.3454 22.7118C28.7556 21.1667 28.8643 20.5733 28.9728 19.7853L29.0573 19.7444C30.0228 19.6319 30.252 19.6011 31.3019 19.4272L31.3863 19.5091L31.2295 20.0002C31.4105 19.9082 31.5794 19.816 31.7604 19.7444C32.2552 19.5397 32.7983 19.4783 33.1 19.4783C33.5585 19.4783 34.0654 19.5909 34.2705 20.0412C34.4636 20.4402 34.3428 20.9313 34.0774 21.9035L33.9447 22.3947C33.6792 23.4793 33.631 23.6737 33.4861 24.4104L33.3896 24.4718L33.4018 24.4821ZM36.7902 24.4848C36.2834 24.4848 35.9576 24.4746 35.6439 24.4848C35.3301 24.4848 35.0284 24.5053 34.5577 24.5155L34.5336 24.4848L34.5095 24.4438C34.6422 24.0345 34.7026 23.8913 34.775 23.748C34.8353 23.6048 34.8956 23.4615 35.0164 23.042C35.1611 22.4996 35.2577 22.1211 35.318 21.7834C35.3904 21.4661 35.4266 21.19 35.4749 20.8727L35.5111 20.8522L35.5472 20.8216C36.0541 20.7602 36.3679 20.7193 36.6938 20.6783C37.0196 20.6374 37.3574 20.5863 37.8763 20.5044L37.9005 20.5453L37.9125 20.5863L37.6231 21.5993C37.5265 21.937 37.4299 22.2746 37.3455 22.6123C37.1643 23.3286 37.08 23.5947 37.0438 23.789C36.9956 23.9732 36.9833 24.0654 36.9109 24.4338L36.8626 24.4644L36.8143 24.4951L36.7902 24.4848ZM42.1477 21.9707C42.1115 22.1549 41.9184 22.8405 41.665 23.127C41.4839 23.3418 41.2788 23.4749 41.0374 23.4749C40.9651 23.4749 40.5546 23.4749 40.5427 22.953C40.5427 22.6972 40.603 22.4311 40.6754 22.1447C40.8927 21.3158 41.1582 20.6302 41.8218 20.6302C42.3408 20.6302 42.3769 21.1419 42.1477 21.9707ZM44.3318 22.0525C44.6214 20.9679 44.3922 20.4562 44.1147 20.1493C43.6802 19.6786 42.908 19.5251 42.1115 19.5251C41.6286 19.5251 40.4944 19.566 39.6014 20.2619C38.9619 20.7632 38.6602 21.4489 38.4912 22.1037C38.31 22.7688 38.105 23.9661 39.4083 24.4163C39.8064 24.5596 40.3857 24.6004 40.7598 24.6004C41.7133 24.6004 42.6907 24.3754 43.4268 23.7205C43.9939 23.1884 44.2473 22.3903 44.3438 22.0525H44.3318ZM64.6727 24.6063C63.659 24.5961 63.3694 24.5961 62.44 24.637L62.3797 24.5756C62.6331 23.7672 62.8865 22.9486 63.1158 22.13C63.4054 21.0658 63.4778 20.6156 63.5744 19.9914L63.6467 19.9403C64.6484 19.8175 64.926 19.7869 65.9759 19.6231L66 19.6947C65.8069 20.3701 65.6259 21.0352 65.4328 21.7003C65.0467 23.1022 64.9139 23.8185 64.7693 24.5553L64.6727 24.6167V24.6063Z" fill="#FEFEFE"/>
<path d="M63.3044 22.2595C63.2567 22.4378 63.0661 23.1509 62.8159 23.4445C62.649 23.6543 62.244 23.7907 62.0177 23.7907C61.9462 23.7907 61.553 23.7907 61.5292 23.2663C61.5292 23.0041 61.5887 22.7314 61.6602 22.4378C61.8747 21.6093 62.1369 20.9067 62.792 20.9067C63.3044 20.9067 63.5307 21.4205 63.3044 22.27V22.2595ZM65.2703 22.3434C65.556 21.2318 64.3886 22.2491 64.2099 21.882C63.9239 21.3052 64.1025 20.1516 62.9589 19.7636C62.518 19.6063 61.4815 19.8056 60.5998 20.5187C59.9803 21.0221 59.6705 21.7246 59.5038 22.3958C59.3248 23.067 59.1224 24.3046 60.3972 24.7345C60.8024 24.8917 61.1717 24.9337 61.541 24.9127C62.828 24.8498 63.8047 23.1404 64.5317 22.4692C65.0913 21.9344 65.1868 22.6685 65.2703 22.3434ZM50.31 24.693C49.4879 24.6825 49.202 24.6825 48.2369 24.7245L48.2011 24.6615C48.2846 24.3364 48.3799 24.0219 48.4632 23.6967L48.5703 23.2563C48.7493 22.5747 48.9278 21.7671 48.9397 21.5259C48.9635 21.3791 49.0112 21.0121 48.5465 21.0121C48.344 21.0121 48.1297 21.0959 47.9271 21.1798C47.8198 21.5469 47.5815 22.5747 47.4623 23.0361C47.236 24.0219 47.2121 24.1372 47.1049 24.6197L47.0334 24.6825C46.1876 24.6721 45.8897 24.6721 44.9127 24.714L44.865 24.6406C45.0319 24.0533 45.1867 23.466 45.3417 22.8787C45.7468 21.2951 45.8422 20.687 45.9611 19.8794L46.0326 19.8375C46.9859 19.7222 47.2242 19.6907 48.2487 19.5124L48.3323 19.5963L48.1893 20.0997C48.3561 20.0054 48.5348 19.9109 48.7016 19.8375C49.1901 19.6277 49.7262 19.5648 50.0239 19.5648C50.4768 19.5648 50.9653 19.6802 51.1796 20.1416C51.3702 20.5506 51.2393 21.054 50.9771 22.0503L50.846 22.5537C50.572 23.6653 50.5363 23.8645 50.3931 24.6196L50.298 24.6825L50.31 24.693ZM57.4483 16.0104L56.7573 16.021C54.9701 16.0419 54.2552 16.0314 53.9694 16C53.9455 16.1154 53.8979 16.3146 53.8979 16.3146C53.8979 16.3146 53.2545 18.9154 53.2545 18.9258C53.2545 18.9258 51.7295 24.463 51.658 24.7252C53.2187 24.7042 53.8502 24.7042 54.1242 24.7357C54.184 24.4735 54.5412 22.9319 54.5532 22.9319C54.5532 22.9319 54.8629 21.7993 54.875 21.7574C54.875 21.7574 54.9701 21.642 55.0654 21.5896H55.2084C56.5548 21.5896 58.0678 21.5896 59.2594 20.8241C60.0695 20.2997 60.6177 19.5131 60.8678 18.5693C60.9274 18.3386 60.975 18.0659 60.975 17.7828C60.975 17.4157 60.8917 17.0592 60.6533 16.776C60.0456 16.0314 58.8422 16.021 57.4483 16.0104ZM58.3418 18.7266C58.199 19.3034 57.77 19.7963 57.2219 20.027C56.7691 20.2262 56.2211 20.2472 55.6492 20.2472H55.2799L55.3037 20.1214C55.3037 20.1214 55.9829 17.5206 55.9829 17.5311L56.0066 17.3947L56.0186 17.2899L56.2926 17.3109C56.2926 17.3109 57.6985 17.4157 57.7223 17.4157C58.2702 17.6045 58.5087 18.0869 58.3418 18.7266ZM72.9878 19.5963L72.9046 19.5124C71.8917 19.6907 71.7011 19.7222 70.7717 19.8376L70.7005 19.9004C70.7005 19.9109 70.6885 19.9215 70.6885 19.9423V19.9319C69.9975 21.3476 70.0092 21.0435 69.4494 22.1552C69.4494 22.1027 69.4494 22.0713 69.4373 22.0188L69.2944 19.6068L69.2111 19.5229C68.1388 19.7012 68.1149 19.7326 67.1379 19.848L67.0664 19.9109C67.0545 19.9423 67.0545 19.9739 67.0545 20.0053L67.0664 20.0158C67.1856 20.5716 67.1618 20.4457 67.2809 21.3162C67.3404 21.7461 67.4119 22.1761 67.4715 22.5956C67.5668 23.3087 67.6264 23.6548 67.7456 24.735C67.0782 25.6997 66.9233 26.0668 66.2801 26.9161L66.3158 27C67.281 26.9687 67.4954 26.9687 68.2103 26.9687L68.3652 26.8113C68.9013 25.7942 73 19.6069 73 19.6069L72.9878 19.5963ZM38.135 20.291C38.683 19.9554 38.7544 19.494 38.2899 19.2528C37.8252 19.0116 37.0031 19.085 36.455 19.4206C35.907 19.7457 35.8474 20.2071 36.3121 20.4588C36.7648 20.6896 37.5869 20.6266 38.135 20.291Z" fill="#FEFEFE"/>
<path d="M67.99 27.0107L67.3154 28.2541C67.104 28.6757 66.7013 29 66.0772 29L65 28.9784L65.3121 27.854H65.5235C65.6342 27.854 65.7147 27.8433 65.7751 27.8108C65.8355 27.7892 65.8659 27.7459 65.9161 27.681L66.3188 27H68L67.99 27.0107Z" fill="#FEFEFE"/>
</svg>
