<svg width="90" height="50" viewBox="0 0 90 50" fill="none" xmlns="http://www.w3.org/2000/svg">
<g clip-path="url(#clip0_35731_270)">
<path d="M90 0H0V50H90V0Z" fill="#0E4595"/>
<path d="M32.5268 36.7489L36.3956 15.4357H42.5837L38.7121 36.7489H32.5268ZM61.0679 15.8952C59.8421 15.4634 57.9208 15 55.522 15C49.4076 15 45.1005 17.8906 45.064 22.0336C45.0293 25.0962 48.1388 26.8047 50.4857 27.8242C52.8945 28.8688 53.7041 29.535 53.6927 30.468C53.6775 31.8965 51.7693 32.5492 49.9908 32.5492C47.514 32.5492 46.1983 32.2262 44.166 31.4304L43.3686 31.0918L42.5001 35.863C43.9454 36.4579 46.6182 36.9733 49.3931 37C55.8978 37 60.1202 34.1425 60.1684 29.7183C60.1915 27.2937 58.543 25.4487 54.9729 23.9275C52.8101 22.9416 51.4855 22.2836 51.4995 21.2853C51.4995 20.3994 52.6207 19.452 55.0432 19.452C57.0667 19.4226 58.5327 19.8368 59.6748 20.2685L60.2292 20.5146L61.0679 15.8952ZM76.9915 15.4354H72.2099C70.7287 15.4354 69.6201 15.815 68.9696 17.2029L59.7798 36.7349H66.2777C66.2777 36.7349 67.3399 34.1085 67.5802 33.532C68.2905 33.532 74.6027 33.5412 75.5053 33.5412C75.6904 34.2873 76.2579 36.7349 76.2579 36.7349H82L76.9915 15.4354ZM69.4051 29.1982C69.9168 27.9702 71.8706 23.2403 71.8706 23.2403C71.834 23.2971 72.3784 22.0063 72.691 21.206L73.109 23.0437C73.109 23.0437 74.2941 28.1313 74.5417 29.1982H69.4051ZM27.2737 15.4354L21.2155 29.9701L20.5699 27.0163C19.4421 23.6115 15.9282 19.9226 12 18.0758L17.5394 36.7151L24.0865 36.7081L33.8283 15.4352L27.2737 15.4354Z" fill="white"/>
<path d="M14.3667 15.0004H5.07355L5 15.3829C12.2298 16.9046 17.0137 20.5819 19 25L16.9792 16.552C16.6303 15.388 15.6186 15.0407 14.3669 15" fill="#F2AE14"/>
</g>
<defs>
<clipPath id="clip0_35731_270">
<rect width="90" height="50" fill="white"/>
</clipPath>
</defs>
</svg>
